<svg xmlns="http://www.w3.org/2000/svg" xmlns:xlink="http://www.w3.org/1999/xlink" viewBox="0 0 95 129">
  <defs>
    <linearGradient id="archive-c" x1="50%" x2="50%" y1="4.452%" y2="50%">
      <stop offset="0%" stop-color="#FFF"/>
      <stop offset="22.745%" stop-color="#FAFBFD"/>
      <stop offset="100%" stop-color="#E9EEF3"/>
    </linearGradient>
    <polygon id="archive-b" points="0 1 54.279 1 80 25.674 80 111 0 111"/>
    <filter id="archive-a" width="117.5%" height="112.7%" x="-8.8%" y="-5.5%" filterUnits="objectBoundingBox">
      <feMorphology in="SourceAlpha" operator="dilate" radius=".5" result="shadowSpreadOuter1"/>
      <feOffset dy="1" in="shadowSpreadOuter1" result="shadowOffsetOuter1"/>
      <feGaussianBlur in="shadowOffsetOuter1" result="shadowBlurOuter1" stdDeviation="2"/>
      <feComposite in="shadowBlurOuter1" in2="SourceAlpha" operator="out" result="shadowBlurOuter1"/>
      <feColorMatrix in="shadowBlurOuter1" values="0 0 0 0 0   0 0 0 0 0   0 0 0 0 0  0 0 0 0.3 0"/>
    </filter>
    <path id="archive-d" d="M55.25,2 L79.25,25 L57.2549466,25 C56.1476452,25 55.25,24.0983727 55.25,22.9991358 L55.25,2 Z"/>
  </defs>
  <g fill="none" fill-rule="evenodd" transform="translate(8 7)">
    <use fill="#000" filter="url(#archive-a)" xlink:href="#archive-b"/>
    <use fill="url(#archive-c)" xlink:href="#archive-b"/>
    <path stroke="#9EA8B5" stroke-width=".5" d="M0,0.75 L-0.25,0.75 L-0.25,1 L-0.25,111 L-0.25,111.25 L0,111.25 L80,111.25 L80.25,111.25 L80.25,111 L80.25,25.6742976 L80.1730674,25.4938879 L54.4519786,0.819590291 L54.2789112,0.75 L0,0.75 Z"/>
    <path fill="#DFE6ED" d="M61.1674736,105.834248 C81.8671101,97.1119616 79.9533987,41 79.9533987,41 L79.9533987,111 L0,111 L0,98.3642113 C0,98.3642113 40.4678371,114.556535 61.1674736,105.834248 Z"/>
    <path fill="#DFE6EC" d="M53.25,0.99822998 L54.2830811,0.99822998 L80.0001078,25.6772762 L80.0001078,27 L53.6968056,28.5897555 C52.5980381,28.6561643 51.7568918,27.8193653 51.8182574,26.7170372 L53.25,0.99822998 Z"/>
    <use fill="#FFF" xlink:href="#archive-d"/>
    <path stroke="#9EA8B5" stroke-width=".5" d="M55.4229763,1.81950295 L55,1.41415062 L55,2 L55,22.9991358 C55,24.2384524 56.0115825,25.25 57.2549466,25.25 L79.25,25.25 L79.8721907,25.25 L79.4229763,24.8195029 L55.4229763,1.81950295 Z"/>
    <path stroke="#727C8A" stroke-width=".5" d="M55,2 L55,22.2487861 C55,23.9004283 56.3501027,25.2393489 57.9996886,25.2393489 L79.4633638,25.2393489"/>
    <g fill-rule="nonzero" stroke-width=".5" transform="matrix(-1 0 0 1 47 1)">
      <path fill="#B5BDC4" stroke="#767E89" d="M6.5,77.447502 L11.375,77.447502 L11.375,80.967843 L6.5,80.967843 L6.5,77.447502 Z M1.625,73.927161 L6.5,73.927161 L6.5,77.447502 L1.625,77.447502 L1.625,73.927161 Z M6.5,70.40682 L11.375,70.40682 L11.375,73.927161 L6.5,73.927161 L6.5,70.40682 Z M1.625,66.886479 L6.5,66.886479 L6.5,70.40682 L1.625,70.40682 L1.625,66.886479 Z M6.5,63.366138 L11.375,63.366138 L11.375,66.886479 L6.5,66.886479 L6.5,63.366138 Z M1.625,59.845797 L6.5,59.845797 L6.5,63.366138 L1.625,63.366138 L1.625,59.845797 Z M6.5,56.325456 L11.375,56.325456 L11.375,59.845797 L6.5,59.845797 L6.5,56.325456 Z M1.625,52.805115 L6.5,52.805115 L6.5,56.325456 L1.625,56.325456 L1.625,52.805115 Z M6.5,49.284774 L11.375,49.284774 L11.375,52.805115 L6.5,52.805115 L6.5,49.284774 Z M1.625,45.764433 L6.5,45.764433 L6.5,49.284774 L1.625,49.284774 L1.625,45.764433 Z M6.5,42.244092 L11.375,42.244092 L11.375,45.764433 L6.5,45.764433 L6.5,42.244092 Z M1.625,38.723751 L6.5,38.723751 L6.5,42.244092 L1.625,42.244092 L1.625,38.723751 Z M6.5,35.20341 L11.375,35.20341 L11.375,38.723751 L6.5,38.723751 L6.5,35.20341 Z M1.625,31.683069 L6.5,31.683069 L6.5,35.20341 L1.625,35.20341 L1.625,31.683069 Z M6.5,28.162728 L11.375,28.162728 L11.375,31.683069 L6.5,31.683069 L6.5,28.162728 Z M1.625,24.642387 L6.5,24.642387 L6.5,28.162728 L1.625,28.162728 L1.625,24.642387 Z M6.5,21.122046 L11.375,21.122046 L11.375,24.642387 L6.5,24.642387 L6.5,21.122046 Z M1.625,17.601705 L6.5,17.601705 L6.5,21.122046 L1.625,21.122046 L1.625,17.601705 Z M6.5,14.081364 L11.375,14.081364 L11.375,17.601705 L6.5,17.601705 L6.5,14.081364 Z M1.625,10.561023 L6.5,10.561023 L6.5,14.081364 L1.625,14.081364 L1.625,10.561023 Z M6.5,7.040682 L11.375,7.040682 L11.375,10.561023 L6.5,10.561023 L6.5,7.040682 Z M1.625,3.520341 L6.5,3.520341 L6.5,7.040682 L1.625,7.040682 L1.625,3.520341 Z M6.5,0 L11.375,0 L11.375,3.520341 L6.5,3.520341 L6.5,0 Z"/>
      <path fill="#E1E6ED" stroke="#727C8A" d="M11.0834903,17.3460955 C10.7432706,19.9620478 8.67043027,22.1029456 6.47476302,22.1029456 C4.27909576,22.1029456 2.20516847,19.9620478 1.86712267,17.3460955 L1.44320672,14.073265 C1.10516092,11.4562617 3.05734824,9.31536388 5.78671481,9.31536388 L7.16389818,9.31536388 C9.89217779,9.31536388 11.8454521,11.4562617 11.5063193,14.072214 L11.0834903,17.3460955 Z"/>
      <path fill="#E7ECF1" stroke="#727C8A" d="M12.9512121,27.1795513 L12.4092755,22.42994 C11.9757263,18.6329757 9.3159019,15.5256065 6.49999977,15.5256065 C3.68409763,15.5256065 1.02535708,18.6329757 0.59072399,22.42994 L0.0487874735,27.1795513 C-0.38476174,30.9765155 2.12006884,34.0838848 5.61881099,34.0838848 L7.38227241,34.0838848 C10.8799307,34.0838848 13.3847613,30.9765155 12.9512121,27.1795513 Z M6.49999977,31.2888244 C4.70402215,31.2888244 3.24838067,29.8813381 3.24838067,28.1447746 C3.24838067,26.408211 4.70402215,25.0007247 6.49999977,25.0007247 C8.29597738,25.0007247 9.75161886,26.408211 9.75161886,28.1447746 C9.75161886,29.8813381 8.29597738,31.2888244 6.49999977,31.2888244 Z"/>
    </g>
  </g>
</svg>
