<svg xmlns="http://www.w3.org/2000/svg" xmlns:xlink="http://www.w3.org/1999/xlink" width="95" height="129" viewBox="0 0 95 129">
  <defs>
    <linearGradient id="archive-c" x1="50%" x2="50%" y1="4.452%" y2="50%">
      <stop offset="0%" stop-color="#FFF"/>
      <stop offset="22.745%" stop-color="#FAFBFD"/>
      <stop offset="100%" stop-color="#E9EEF3"/>
    </linearGradient>
    <polygon id="archive-b" points="0 1 54.279 1 80 25.674 80 111 0 111"/>
    <filter id="archive-a" width="117.5%" height="112.7%" x="-8.8%" y="-5.5%" filterUnits="objectBoundingBox">
      <feMorphology in="SourceAlpha" operator="dilate" radius=".5" result="shadowSpreadOuter1"/>
      <feOffset dy="1" in="shadowSpreadOuter1" result="shadowOffsetOuter1"/>
      <feGaussianBlur in="shadowOffsetOuter1" result="shadowBlurOuter1" stdDeviation="2"/>
      <feComposite in="shadowBlurOuter1" in2="SourceAlpha" operator="out" result="shadowBlurOuter1"/>
      <feColorMatrix in="shadowBlurOuter1" values="0 0 0 0 0   0 0 0 0 0   0 0 0 0 0  0 0 0 0.3 0"/>
    </filter>
    <path id="archive-d" d="M55.25,2 L79.25,25 L57.2549466,25 C56.1476452,25 55.25,24.0983727 55.25,22.9991358 L55.25,2 Z"/>
  </defs>
  <g fill="none" fill-rule="evenodd" transform="translate(8 7)">
    <use fill="#000" filter="url(#archive-a)" xlink:href="#archive-b"/>
    <use fill="url(#archive-c)" xlink:href="#archive-b"/>
    <path stroke="#9EA8B5" stroke-width=".5" d="M0,0.75 L-0.25,0.75 L-0.25,1 L-0.25,111 L-0.25,111.25 L0,111.25 L80,111.25 L80.25,111.25 L80.25,111 L80.25,25.6742976 L80.1730674,25.4938879 L54.4519786,0.819590291 L54.2789112,0.75 L0,0.75 Z"/>
    <path fill="#DFE6ED" d="M61.1674736,105.834248 C81.8671101,97.1119616 79.9533987,41 79.9533987,41 L79.9533987,111 L0,111 L0,98.3642113 C0,98.3642113 40.4678371,114.556535 61.1674736,105.834248 Z"/>
    <path fill="#DFE6EC" d="M53.25,0.99822998 L54.2830811,0.99822998 L80.0001078,25.6772762 L80.0001078,27 L53.6968056,28.5897555 C52.5980381,28.6561643 51.7568918,27.8193653 51.8182574,26.7170372 L53.25,0.99822998 Z"/>
    <use fill="#FFF" xlink:href="#archive-d"/>
    <path stroke="#9EA8B5" stroke-width=".5" d="M55.4229763,1.81950295 L55,1.41415062 L55,2 L55,22.9991358 C55,24.2384524 56.0115825,25.25 57.2549466,25.25 L79.25,25.25 L79.8721907,25.25 L79.4229763,24.8195029 L55.4229763,1.81950295 Z"/>
    <path stroke="#727C8A" stroke-width=".5" d="M55,2 L55,22.2487861 C55,23.9004283 56.3501027,25.2393489 57.9996886,25.2393489 L79.4633638,25.2393489"/>
    <g fill-rule="nonzero" stroke-width=".5" transform="matrix(-1 0 0 1 45 1)">
      <path fill="#B5BDC4" stroke="#767E89" d="M4,49.8837209 L7,49.8837209 L7,52.1511628 L4,52.1511628 L4,49.8837209 Z M1,47.6162791 L4,47.6162791 L4,49.8837209 L1,49.8837209 L1,47.6162791 Z M4,45.3488372 L7,45.3488372 L7,47.6162791 L4,47.6162791 L4,45.3488372 Z M1,43.0813953 L4,43.0813953 L4,45.3488372 L1,45.3488372 L1,43.0813953 Z M4,40.8139535 L7,40.8139535 L7,43.0813953 L4,43.0813953 L4,40.8139535 Z M1,38.5465116 L4,38.5465116 L4,40.8139535 L1,40.8139535 L1,38.5465116 Z M4,36.2790698 L7,36.2790698 L7,38.5465116 L4,38.5465116 L4,36.2790698 Z M1,34.0116279 L4,34.0116279 L4,36.2790698 L1,36.2790698 L1,34.0116279 Z M4,31.744186 L7,31.744186 L7,34.0116279 L4,34.0116279 L4,31.744186 Z M1,29.4767442 L4,29.4767442 L4,31.744186 L1,31.744186 L1,29.4767442 Z M4,27.2093023 L7,27.2093023 L7,29.4767442 L4,29.4767442 L4,27.2093023 Z M1,24.9418605 L4,24.9418605 L4,27.2093023 L1,27.2093023 L1,24.9418605 Z M4,22.6744186 L7,22.6744186 L7,24.9418605 L4,24.9418605 L4,22.6744186 Z M1,20.4069767 L4,20.4069767 L4,22.6744186 L1,22.6744186 L1,20.4069767 Z M4,18.1395349 L7,18.1395349 L7,20.4069767 L4,20.4069767 L4,18.1395349 Z M1,15.872093 L4,15.872093 L4,18.1395349 L1,18.1395349 L1,15.872093 Z M4,13.6046512 L7,13.6046512 L7,15.872093 L4,15.872093 L4,13.6046512 Z M1,11.3372093 L4,11.3372093 L4,13.6046512 L1,13.6046512 L1,11.3372093 Z M4,9.06976744 L7,9.06976744 L7,11.3372093 L4,11.3372093 L4,9.06976744 Z M1,6.80232558 L4,6.80232558 L4,9.06976744 L1,9.06976744 L1,6.80232558 Z M4,4.53488372 L7,4.53488372 L7,6.80232558 L4,6.80232558 L4,4.53488372 Z M1,2.26744186 L4,2.26744186 L4,4.53488372 L1,4.53488372 L1,2.26744186 Z M4,0 L7,0 L7,2.26744186 L4,2.26744186 L4,0 Z"/>
      <path fill="#E1E6ED" stroke="#727C8A" d="M6.82060943,11.1725719 C6.61124344,12.8574995 5.3356494,14.2364459 3.98446955,14.2364459 C2.6332897,14.2364459 1.35702675,12.8574995 1.14899857,11.1725719 L0.88812721,9.06455087 C0.680099025,7.37894635 1.88144507,6 3.56105527,6 L4.40855273,6 C6.08749403,6 7.28950897,7.37894635 7.08081189,9.06387392 L6.82060943,11.1725719 Z"/>
      <path fill="#E7ECF1" stroke="#727C8A" d="M7.96997665,17.5062735 L7.63647726,14.447062 C7.36967774,12.0014479 5.73286271,10 3.99999986,10 C2.267137,10 0.63098897,12.0014479 0.363522455,14.447062 L0.0300230606,17.5062735 C-0.236776455,19.9518876 1.30465775,21.9533355 3.45772984,21.9533355 L4.54293687,21.9533355 C6.69534196,21.9533355 8.23677617,19.9518876 7.96997665,17.5062735 Z M3.99999986,20.1530449 C2.89478286,20.1530449 1.99900349,19.2464869 1.99900349,18.1279711 C1.99900349,17.0094554 2.89478286,16.1028973 3.99999986,16.1028973 C5.10521685,16.1028973 6.00099622,17.0094554 6.00099622,18.1279711 C6.00099622,19.2464869 5.10521685,20.1530449 3.99999986,20.1530449 Z"/>
    </g>
    <path fill="#323D49" d="M21.6054688,94 L34.4609375,94 L34.4609375,91.4570312 L25.3789062,91.4570312 L25.3789062,91.2460938 L34.2382812,79.1054688 L34.2382812,77.0898438 L21.8515625,77.0898438 L21.8515625,79.6328125 L30.5,79.6328125 L30.5,79.84375 L21.6054688,91.984375 L21.6054688,94 Z M41.1875,94 L41.1875,77.0898438 L38.1640625,77.0898438 L38.1640625,94 L41.1875,94 Z M45.359375,77.0898438 L52.1796875,77.0898438 C53.8671959,77.0898438 55.2363229,77.6152291 56.2871094,78.6660156 C57.3378959,79.7168021 57.8632812,81.0898353 57.8632812,82.7851562 C57.8632812,84.4492271 57.322271,85.8046823 56.2402344,86.8515625 C55.1581977,87.8984427 53.7617273,88.421875 52.0507812,88.421875 L48.3828125,88.421875 L48.3828125,94 L45.359375,94 L45.359375,77.0898438 Z M48.3828125,79.5625 L48.3828125,85.9609375 L51.3710938,85.9609375 C52.4492241,85.9609375 53.2890595,85.6855496 53.890625,85.1347656 C54.4921905,84.5839816 54.7929688,83.8007863 54.7929688,82.7851562 C54.7929688,81.738276 54.4980498,80.9394559 53.9082031,80.3886719 C53.3183564,79.8378879 52.476568,79.5625 51.3828125,79.5625 L48.3828125,79.5625 Z"/>
  </g>
</svg>
