<svg xmlns="http://www.w3.org/2000/svg" xmlns:xlink="http://www.w3.org/1999/xlink" width="95" height="129" viewBox="0 0 95 129">
  <defs>
    <linearGradient id="file-c" x1="50%" x2="50%" y1="4.452%" y2="50%">
      <stop offset="0%" stop-color="#FFF"/>
      <stop offset="100%" stop-color="#E9EEF3"/>
    </linearGradient>
    <polygon id="file-b" points="0 1 54.279 1 80 25.674 80 111 0 111"/>
    <filter id="file-a" width="117.5%" height="112.7%" x="-8.8%" y="-5.5%" filterUnits="objectBoundingBox">
      <feMorphology in="SourceAlpha" operator="dilate" radius=".5" result="shadowSpreadOuter1"/>
      <feOffset dy="1" in="shadowSpreadOuter1" result="shadowOffsetOuter1"/>
      <feGaussianBlur in="shadowOffsetOuter1" result="shadowBlurOuter1" stdDeviation="2"/>
      <feComposite in="shadowBlurOuter1" in2="SourceAlpha" operator="out" result="shadowBlurOuter1"/>
      <feColorMatrix in="shadowBlurOuter1" values="0 0 0 0 0   0 0 0 0 0   0 0 0 0 0  0 0 0 0.3 0"/>
    </filter>
    <path id="file-d" d="M55.25,2 L79.25,25 L57.2549466,25 C56.1476452,25 55.25,24.0983727 55.25,22.9991358 L55.25,2 Z"/>
  </defs>
  <g fill="none" fill-rule="evenodd" transform="translate(8 7)">
    <use fill="#000" filter="url(#file-a)" xlink:href="#file-b"/>
    <use fill="url(#file-c)" xlink:href="#file-b"/>
    <path stroke="#B6BFCA" stroke-width=".5" d="M0,0.75 L-0.25,0.75 L-0.25,1 L-0.25,111 L-0.25,111.25 L0,111.25 L80,111.25 L80.25,111.25 L80.25,111 L80.25,25.6742976 L80.1730674,25.4938879 L54.4519786,0.819590291 L54.2789112,0.75 L0,0.75 Z"/>
    <path fill="#DFE6ED" d="M61.1674736,105.834248 C81.8671101,97.1119616 79.9533987,41 79.9533987,41 L79.9533987,111 L0,111 L0,98.3642113 C0,98.3642113 40.4678371,114.556535 61.1674736,105.834248 Z"/>
    <path fill="#D8DFE5" d="M53.25,0.99822998 L54.2830811,0.99822998 L80.0001078,25.6772762 L80.0001078,27 L55.2496659,27 C54.1452809,27 53.25,26.1049602 53.25,25.0028594 L53.25,0.99822998 Z"/>
    <g>
      <use fill="#FFF" xlink:href="#file-d"/>
      <path stroke="#B6BFCA" stroke-width=".5" d="M55.4229763,1.81950295 L55,1.41415062 L55,2 L55,22.9991358 C55,24.2384524 56.0115825,25.25 57.2549466,25.25 L79.25,25.25 L79.8721907,25.25 L79.4229763,24.8195029 L55.4229763,1.81950295 Z"/>
    </g>
  </g>
</svg>
