<svg xmlns="http://www.w3.org/2000/svg" xmlns:xlink="http://www.w3.org/1999/xlink" width="128" height="100" viewBox="0 0 128 100">
  <defs>
    <linearGradient id="folder-c" x1="50%" x2="50%" y1="2.075%" y2="13.443%">
      <stop offset="0%" stop-color="#FFEA98"/>
      <stop offset="100%" stop-color="#FFECA0"/>
    </linearGradient>
    <path id="folder-b" d="M0,3.99793926 C0,1.78993837 1.79189836,0 3.99476672,0 L37.0393044,0 C38.145711,0 39.6331399,0.676050851 40.3556195,1.5031893 L44.7982701,6.58940553 C45.5234138,7.41959406 47.0144102,8.09259483 48.111075,8.09259483 L106.003473,8.09259483 C108.210694,8.09259483 110,9.87952099 110,12.0986059 L110,85.993989 C110,88.2064478 108.205131,90 106.003734,90 L3.996266,90 C1.78918923,90 0,88.2022159 0,86.0020607 L0,3.99793926 Z"/>
    <filter id="folder-a" width="106.4%" height="107.8%" x="-3.2%" y="-3.9%" filterUnits="objectBoundingBox">
      <feMorphology in="SourceAlpha" operator="dilate" radius=".5" result="shadowSpreadOuter1"/>
      <feOffset in="shadowSpreadOuter1" result="shadowOffsetOuter1"/>
      <feGaussianBlur in="shadowOffsetOuter1" result="shadowBlurOuter1" stdDeviation="1"/>
      <feComposite in="shadowBlurOuter1" in2="SourceAlpha" operator="out" result="shadowBlurOuter1"/>
      <feColorMatrix in="shadowBlurOuter1" values="0 0 0 0 0   0 0 0 0 0   0 0 0 0 0  0 0 0 0.314424819 0"/>
    </filter>
    <linearGradient id="folder-f" x1="50%" x2="50%" y1="0%" y2="45.95%">
      <stop offset="0%" stop-color="#FAD766"/>
      <stop offset="100%" stop-color="#FDE272"/>
    </linearGradient>
    <path id="folder-e" d="M0,18.0007992 C0,16.8957883 0.88543877,16 2.00315669,16 L107.996843,16 C109.103156,16 110,16.8978162 110,18.0007992 L110,86 L0,86 L0,18.0007992 Z"/>
    <filter id="folder-d" width="110.9%" height="117.1%" x="-5.5%" y="-11.4%" filterUnits="objectBoundingBox">
      <feMorphology in="SourceAlpha" operator="dilate" radius=".5" result="shadowSpreadOuter1"/>
      <feOffset dy="-2" in="shadowSpreadOuter1" result="shadowOffsetOuter1"/>
      <feGaussianBlur in="shadowOffsetOuter1" result="shadowBlurOuter1" stdDeviation="1.5"/>
      <feComposite in="shadowBlurOuter1" in2="SourceAlpha" operator="out" result="shadowBlurOuter1"/>
      <feColorMatrix in="shadowBlurOuter1" values="0 0 0 0 0.362484056   0 0 0 0 0.339517637   0 0 0 0 0.258204098  0 0 0 0.223618659 0"/>
    </filter>
  </defs>
  <g fill="none" fill-rule="evenodd" transform="translate(9 5)">
    <use fill="#000" filter="url(#folder-a)" xlink:href="#folder-b"/>
    <use fill="url(#folder-c)" xlink:href="#folder-b"/>
    <path stroke="#998A4A" stroke-width=".5" d="M-0.25,3.99793926 L-0.25,86.0020607 C-0.25,88.3428976 1.65372361,90.25 3.996266,90.25 L106.003734,90.25 C108.345246,90.25 110.25,88.3424733 110.25,85.993989 L110.25,12.0986059 C110.25,9.74380689 108.35112,7.84259483 106.003473,7.84259483 L48.111075,7.84259483 C47.0837853,7.84259483 45.6623977,7.19868613 44.9865571,6.42494274 L40.5439065,1.33872651 C39.7730004,0.456146395 38.2164273,-0.25 37.0393044,-0.25 L3.99476672,-0.25 C1.65264796,-0.25 -0.25,1.65304664 -0.25,3.99793926 Z"/>
    <g>
      <use fill="#000" filter="url(#folder-d)" xlink:href="#folder-e"/>
      <use fill="url(#folder-f)" xlink:href="#folder-e"/>
      <path stroke="#998E5B" stroke-width=".5" d="M-0.25,18.0007992 L-0.25,86 L-0.25,86.25 L0,86.25 L110,86.25 L110.25,86.25 L110.25,86 L110.25,18.0007992 C110.25,16.7590179 109.2405,15.75 107.996843,15.75 L2.00315669,15.75 C0.751151697,15.75 -0.25,16.7539216 -0.25,18.0007992 Z"/>
    </g>
    <path fill="#EFD66F" d="M110,51 L110,86 L0,86 L0,68.5 C0,68.5 19.6844618,82.8183486 63.9518229,82.8183486 C108.219184,82.8183486 110,51 110,51 Z"/>
  </g>
</svg>
