<svg xmlns="http://www.w3.org/2000/svg" xmlns:xlink="http://www.w3.org/1999/xlink" width="95" height="129" viewBox="0 0 95 129">
  <defs>
    <linearGradient id="project-c" x1="50%" x2="50%" y1="5.375%" y2="50%">
      <stop offset="0%" stop-color="#8ECC9C"/>
      <stop offset="100%" stop-color="#74B282"/>
    </linearGradient>
    <polygon id="project-b" points="1 1 55.279 1 81 25.674 81 111 1 111"/>
    <filter id="project-a" width="117.5%" height="112.7%" x="-8.8%" y="-5.5%" filterUnits="objectBoundingBox">
      <feMorphology in="SourceAlpha" operator="dilate" radius=".5" result="shadowSpreadOuter1"/>
      <feOffset dy="1" in="shadowSpreadOuter1" result="shadowOffsetOuter1"/>
      <feGaussianBlur in="shadowOffsetOuter1" result="shadowBlurOuter1" stdDeviation="2"/>
      <feComposite in="shadowBlurOuter1" in2="SourceAlpha" operator="out" result="shadowBlurOuter1"/>
      <feColorMatrix in="shadowBlurOuter1" values="0 0 0 0 0   0 0 0 0 0   0 0 0 0 0  0 0 0 0.3 0"/>
    </filter>
    <path id="project-d" d="M56,2 L80,25 L58.0049466,25 C56.8976452,25 56,24.0983727 56,22.9991358 L56,2 Z"/>
  </defs>
  <g fill="none" fill-rule="evenodd" transform="translate(6 8)">
    <use fill="#000" filter="url(#project-a)" xlink:href="#project-b"/>
    <use fill="url(#project-c)" xlink:href="#project-b"/>
    <path stroke="#40774C" stroke-width=".5" d="M1,0.75 L0.75,0.75 L0.75,1 L0.75,111 L0.75,111.25 L1,111.25 L81,111.25 L81.25,111.25 L81.25,111 L81.25,25.6742976 L81.1730674,25.4938879 L55.4519786,0.819590291 L55.2789112,0.75 L1,0.75 Z"/>
    <path fill="#6BA578" d="M62.1674736,105.834248 C82.8671101,97.1119616 80.9533987,41 80.9533987,41 L80.9533987,111 L1,111 L1,98.3642113 C1,98.3642113 41.4678371,114.556535 62.1674736,105.834248 Z"/>
    <path fill="#FFF" fill-rule="nonzero" d="M7.48813789,93.9787868 L7.48813789,92.9787868 L75.3805881,92.9787868 L75.3805881,93.9787868 L7.48813789,93.9787868 Z M7.48813789,92.9787868 L75.3805881,92.9787868 L75.3805881,93.9787868 L7.48813789,93.9787868 L7.48813789,92.9787868 Z"/>
    <path fill="#FFF" fill-rule="nonzero" d="M74.3805881,106.410427 L74.3805881,28.4584043 L54.6272323,8.62109321 L10.4809028,8.62109321 C9.38491952,8.62109321 8.48813789,9.51867618 8.48813789,10.621169 L8.48813789,106.410427 L74.3805881,106.410427 Z M7.48813789,10.621169 C7.48813789,8.96427291 8.83475103,7.62109321 10.4809028,7.62109321 L55.0426886,7.62109321 L75.3805881,28.0454324 L75.3805881,107.410427 L7.48813789,107.410427 L7.48813789,10.621169 Z"/>
    <path fill="#FFF" fill-opacity=".35" fill-rule="nonzero" d="M16.238355,1.70432486 L17.7335477,1.70432486 L17.7335477,1.20432486 L17.2335477,1.20432486 L17.2335477,110.736468 L17.7335477,110.736468 L17.7335477,110.236468 L16.738355,110.236468 L16.738355,110.736468 L17.238355,110.736468 L17.238355,1.19895627 L16.238355,1.19895627 L16.238355,111.236468 L18.2335477,111.236468 L18.2335477,0.704324856 L16.238355,0.704324856 L16.238355,1.70432486 Z M63.7381777,13.4007559 L65.2333705,13.4007559 L65.2333705,12.9007559 L64.7333705,12.9007559 L64.7333705,110.26861 L65.2333705,110.26861 L65.2333705,109.76861 L64.2381777,109.76861 L64.2381777,110.26861 L64.7381777,110.26861 L64.7381777,12.8953873 L63.7381777,12.8953873 L63.7381777,110.76861 L65.7333705,110.76861 L65.7333705,12.4007559 L63.7381777,12.4007559 L63.7381777,13.4007559 Z M40.4729584,1.23646761 L41.9681512,1.23646761 L41.9681512,0.736467615 L41.4681512,0.736467615 L41.4681512,110.26861 L41.9681512,110.26861 L41.9681512,109.76861 L40.9729584,109.76861 L40.9729584,110.26861 L41.4729584,110.26861 L41.4729584,0.731099027 L40.4729584,0.731099027 L40.4729584,110.76861 L42.4681512,110.76861 L42.4681512,0.236467615 L40.4729584,0.236467615 L40.4729584,1.23646761 Z M2.21290082,20.0043056 L2.21290082,18.5150428 L1.71290082,18.5150428 L1.71290082,19.0150428 L70.5649832,19.0150428 L70.5649832,18.5150428 L70.0649832,18.5150428 L70.0649832,19.5043056 L70.5649832,19.5043056 L70.5649832,19.0043056 L1.71049719,19.0043056 L1.71049719,20.0043056 L71.0649832,20.0043056 L71.0649832,18.0150428 L1.21290082,18.0150428 L1.21290082,20.0043056 L2.21290082,20.0043056 Z M1.24351668,90.1828918 L1.24351668,88.6936289 L0.743516679,88.6936289 L0.743516679,89.1936289 L80.7435167,89.1936289 L80.7435167,88.6936289 L80.2435167,88.6936289 L80.2435167,89.6828918 L80.7435167,89.6828918 L80.7435167,89.1828918 L0.741113056,89.1828918 L0.741113056,90.1828918 L81.2435167,90.1828918 L81.2435167,88.1936289 L0.243516679,88.1936289 L0.243516679,90.1828918 L1.24351668,90.1828918 Z M2.21290082,55.5614559 L2.21290082,54.0721931 L1.71290082,54.0721931 L1.71290082,54.5721931 L80.2588246,54.5721931 L80.2588246,54.0721931 L79.7588246,54.0721931 L79.7588246,55.0614559 L80.2588246,55.0614559 L80.2588246,54.5614559 L1.71049719,54.5614559 L1.71049719,55.5614559 L80.7588246,55.5614559 L80.7588246,53.5721931 L1.21290082,53.5721931 L1.21290082,55.5614559 L2.21290082,55.5614559 Z"/>
    <path fill="#44714E" fill-opacity=".547" d="M55.1126892,1 L55.2987738,1 L80.7501078,25.6790462 L80.7501078,27.00177 L57.0296536,29.6233722 C55.9269771,29.7452408 55.0355509,28.9491609 55.0386157,27.8386789 L55.1126892,1 Z"/>
    <g>
      <use fill="#A5DCB1" xlink:href="#project-d"/>
      <path stroke="#40774C" stroke-width=".5" d="M56.1729763,1.81950295 L55.75,1.41415062 L55.75,2 L55.75,22.9991358 C55.75,24.2384524 56.7615825,25.25 58.0049466,25.25 L80,25.25 L80.6221907,25.25 L80.1729763,24.8195029 L56.1729763,1.81950295 Z"/>
    </g>
    <g stroke="#FFF" stroke-width="2" transform="translate(13.479 32.16)">
      <path stroke-linecap="round" d="M45.1181263,11.5893635 C46.0593343,6.96222921 45.5329843,3.45055095 43.3082651,2.05503514 C42.5666916,1.58986319 41.677617,1.38630629 40.6770054,1.42299927 C35.273704,1.62114134 26.5552676,8.80736172 19.4320198,19.4024028 C10.9896521,31.9594885 7.98946324,44.5441767 12.7355335,47.5212755 C14.9884247,48.9344625 18.5783877,47.9326808 22.6340819,45.1410553"/>
      <path stroke-linecap="round" d="M49.4562053,31.9818234 C53.4632357,30.4803475 55.9271728,28.4252044 56.0552375,26.0648917 C56.3514087,20.6061927 44.0527996,15.5525371 28.5731919,14.7689314 C27.1219791,14.6954685 25.6949723,14.6568135 24.2991352,14.6613508 C10.8060427,14.7052123 0.273634888,18.2805081 0.00522964966,23.2274541 C-0.122581966,25.5831352 2.09931523,27.8673539 5.90816143,29.762974"/>
      <path stroke-linecap="round" d="M24.3269039,3.24010796 C21.5853262,1.04292942 19.0140657,-0.13696806 16.9482391,0.0126907636 C16.3982151,0.0525372745 15.8895285,0.183468084 15.4168182,0.416117919 C10.3745766,2.8977163 11.9853802,15.7322021 19.0226185,29.0728935 C26.0598567,42.4135862 35.8518529,51.2148434 40.8940945,48.7332435 C45.7431413,46.3467277 44.4343655,34.3872646 38.0679266,21.6094911"/>
      <path d="M31.6430239,25.455373 C31.6430239,27.2378264 30.1470809,28.6827903 28.3017418,28.6827903 C26.4564026,28.6827903 24.9604596,27.2378264 24.9604596,25.455373 C24.9604596,23.6729197 26.4564026,22.2279558 28.3017418,22.2279558 C30.1470809,22.2279558 31.6430239,23.6729197 31.6430239,25.455373 Z"/>
    </g>
  </g>
</svg>
