<svg xmlns="http://www.w3.org/2000/svg" xmlns:xlink="http://www.w3.org/1999/xlink" width="128" height="100" viewBox="0 0 128 100">
  <defs>
    <linearGradient id="settings-c" x1="50%" x2="50%" y1="2.659%" y2="13.006%">
      <stop offset="0%" stop-color="#B6C2C6"/>
      <stop offset="100%" stop-color="#C6CED7"/>
    </linearGradient>
    <path id="settings-b" d="M0,3.99793926 C0,1.78993837 1.79486856,1.15128888e-14 3.996266,1.12696806e-14 L106.003734,-4.93038066e-32 C108.210811,-2.43835582e-16 110,1.79778412 110,3.99793926 L110,87.9940354 C110,89.1018991 109.114561,90 107.996843,90 L2.00315669,90 C0.896843799,90 0,89.1092384 0,87.9940354 L0,3.99793926 Z"/>
    <filter id="settings-a" width="106.4%" height="107.8%" x="-3.2%" y="-3.9%" filterUnits="objectBoundingBox">
      <feMorphology in="SourceAlpha" operator="dilate" radius=".5" result="shadowSpreadOuter1"/>
      <feOffset in="shadowSpreadOuter1" result="shadowOffsetOuter1"/>
      <feGaussianBlur in="shadowOffsetOuter1" result="shadowBlurOuter1" stdDeviation="1"/>
      <feComposite in="shadowBlurOuter1" in2="SourceAlpha" operator="out" result="shadowBlurOuter1"/>
      <feColorMatrix in="shadowBlurOuter1" values="0 0 0 0 0   0 0 0 0 0   0 0 0 0 0  0 0 0 0.5 0"/>
    </filter>
    <path id="settings-e" d="M52.0060477,13 L50.6414175,20.7731315 L50.6466731,20.778335 C48.9786237,21.050891 47.3647682,21.4877415 45.8232394,22.069481 L45.8232394,22.0642786 L40.7583806,16.0126908 L35.9979286,18.7629381 L38.7009423,26.1739088 L38.7114253,26.1791163 C37.4208322,27.2385057 36.2379521,28.4255735 35.1791523,29.716668 L35.1739088,29.7008833 L27.762938,26.9978606 L25.0126914,31.7583187 L31.0642785,36.828431 C30.4834925,38.3686805 30.050542,39.9801218 29.7783861,41.6466151 L29.7731325,41.6414037 L22,43.0060299 L22,48.5065251 L29.7731325,49.8711513 L29.7783861,49.8659458 C30.0505225,51.5324352 30.4834925,53.1438664 31.0642785,54.6841219 L25.0126914,59.7542403 L27.762938,64.5146754 L35.1739088,61.8116747 L35.1791523,61.795886 C36.2379522,63.0869383 37.4208172,64.2740503 38.7114253,65.3333965 L38.7009423,65.338606 L35.9979286,72.7495782 L40.7583806,75.4998289 L45.8232394,69.4482894 L45.8232394,69.4430438 C47.3647682,70.0247934 48.9786237,70.4616409 50.6466731,70.7341884 L50.6414175,70.7393979 L52.0060477,78.5125209 L57.5012793,78.5125209 L58.8659095,70.7393979 L58.860668,70.7341884 C60.5283805,70.4623869 62.1427112,70.0291687 63.6841096,69.4482894 L68.7541999,75.499885 L73.514655,72.7496384 L70.8064008,65.3386702 C72.0940803,64.2819908 73.276384,63.0990094 74.3334323,61.8116347 L81.749642,64.5146474 L84.4946551,59.7541963 L78.448309,54.6840819 C79.0292245,53.1436299 79.467247,51.5326318 79.7394576,49.8659018 L87.5125886,48.5065332 L87.5125886,43.00604 L79.7394576,41.6414158 C79.4671909,39.9764725 79.028643,38.3673793 78.448309,36.8284712 L84.4946551,31.7583589 L81.749642,26.9979128 L74.3334323,29.7009235 C73.2763559,28.4135286 72.0941244,27.2305723 70.8064008,26.1738889 L73.514655,18.7629227 L68.7541999,16.0126758 L63.6841096,22.0642576 C62.1427112,21.4834255 60.5283805,21.0501888 58.860668,20.7783706 L58.8659095,20.7731632 L57.5012793,13.0000356 L52.0060477,13.0000356 L52.0060477,13.0000001 L52.0060477,13 Z M54.7562943,26.3838316 C65.4566487,26.3838316 74.1339856,35.055924 74.1339856,45.7562884 C74.1339856,56.4566408 65.4566487,65.1287241 54.7562943,65.1287241 C44.0559459,65.1287241 35.3838566,56.4566408 35.3838566,45.7562884 C35.3838566,35.055924 44.0559459,26.3838316 54.7562943,26.3838316 L54.7562943,26.3838316 Z"/>
    <filter id="settings-d" width="113.7%" height="113.7%" x="-6.9%" y="-3.8%" filterUnits="objectBoundingBox">
      <feMorphology in="SourceAlpha" operator="dilate" radius=".5" result="shadowSpreadOuter1"/>
      <feOffset dy="2" in="shadowSpreadOuter1" result="shadowOffsetOuter1"/>
      <feGaussianBlur in="shadowOffsetOuter1" result="shadowBlurOuter1" stdDeviation="1"/>
      <feComposite in="shadowBlurOuter1" in2="SourceAlpha" operator="out" result="shadowBlurOuter1"/>
      <feColorMatrix in="shadowBlurOuter1" values="0 0 0 0 0   0 0 0 0 0   0 0 0 0 0  0 0 0 0.219655797 0"/>
    </filter>
  </defs>
  <g fill="none" fill-rule="evenodd" transform="translate(9 5)">
    <use fill="#000" filter="url(#settings-a)" xlink:href="#settings-b"/>
    <use fill="url(#settings-c)" xlink:href="#settings-b"/>
    <path stroke="#516177" stroke-width=".5" d="M-0.25,3.99793926 L-0.25,87.9940354 C-0.25,89.244838 0.756298131,90.25 2.00315669,90.25 L107.996843,90.25 C109.248993,90.25 110.25,89.2436323 110.25,87.9940354 L110.25,3.99793926 C110.25,1.65710237 108.346276,-0.25 106.003734,-0.25 L3.996266,-0.25 C1.65486736,-0.25 -0.25,1.65379607 -0.25,3.99793926 Z"/>
    <circle cx="55.073" cy="45.073" r="40.073" fill="#57677A" stroke="#131A22" stroke-width=".5"/>
    <path fill="#77889D" stroke="#131A22" stroke-width=".5" d="M44.0818645,83.6201256 C36.0048608,81.3214612 28.9681266,76.5526868 23.8402993,70.1824402 C24.8115972,70.4214561 25.7609341,70.7163852 26.6841096,71.0642576 L31.7541999,65.0126758 L36.514655,67.7629227 L33.8064008,75.1738889 C35.0941244,76.2305723 36.2763559,77.4135286 37.3334323,78.7009235 L44.749642,75.9979128 L47.4946551,80.7583589 L44.0818645,83.6201256 Z M21.324635,66.6899868 C20.363093,65.191927 19.4985681,63.6256531 18.7399307,62.0000356 L20.5012793,62.0000356 L21.324635,66.6899868 Z"/>
    <path fill="#909DAC" stroke="#131A22" stroke-width=".5" d="M91.4062891,62.0000356 C90.7821059,63.3375431 90.0862423,64.6348779 89.3236389,65.8870996 L90.0060477,62 L90.0060477,62.0000001 L90.0060477,62.0000356 L91.4062891,62.0000356 Z M86.2091727,70.3021598 C81.1474242,76.5413414 74.2481434,81.2292547 66.3352342,83.5419959 L63.0126914,80.7583187 L65.762938,75.9978606 L73.1739088,78.7008833 L73.1791523,78.716668 C74.2379521,77.4255735 75.4208322,76.2385057 76.7114253,75.1791163 L76.7009423,75.1739088 L73.9979286,67.7629381 L78.7583806,65.0126908 L83.8232394,71.0642786 L83.8232394,71.069481 C84.600919,70.7760016 85.3970062,70.5193973 86.2091727,70.3021598 Z"/>
    <g fill-rule="nonzero">
      <use fill="#000" filter="url(#settings-d)" xlink:href="#settings-e"/>
      <use fill="#C6CED7" fill-rule="evenodd" xlink:href="#settings-e"/>
      <path stroke="#323C46" stroke-width=".5" d="M50.4246644,20.5619742 C48.8804759,20.8258378 47.3684673,21.2316654 45.9047807,21.7721874 L40.9500948,15.8522362 L40.8152457,15.6911159 L40.6333193,15.7962199 L35.8728672,18.5464672 L35.6911549,18.6514475 L35.7630629,18.848601 L38.4094847,26.1044112 C37.2150763,27.0996309 36.1094661,28.2072288 35.1077184,29.4106318 L27.8486012,26.762995 L27.6514475,26.6910866 L27.546467,26.8727994 L24.7962204,31.6332575 L24.6911711,31.8150895 L24.852139,31.9499509 L30.7682929,36.9065953 C30.2304212,38.3641556 29.8264608,39.8749743 29.561991,41.4246477 L21.9567719,42.7597956 L21.75,42.7960958 L21.75,43.0060299 L21.75,48.5065251 L21.75,48.7164592 L21.9567719,48.7527594 L29.5619878,50.0879067 C29.8264313,51.6375138 30.2303961,53.1483277 30.7682932,54.6059576 L24.8521389,59.5626082 L24.6911708,59.6974698 L24.7962207,59.879302 L27.5464673,64.639737 L27.6514476,64.8214487 L27.8486006,64.7495411 L35.1077232,62.101924 C36.1095772,63.3054213 37.2151913,64.4130275 38.4094837,65.4081063 L35.7630629,72.6639154 L35.6911549,72.8610687 L35.8728671,72.9660491 L40.6333192,75.7162997 L40.8152449,75.8214034 L40.9500942,75.6602842 L45.9048068,69.7403483 C47.3684768,70.2808707 48.8804763,70.6866939 50.4246635,70.9505499 L51.7598134,78.5557492 L51.7961138,78.7625209 L52.0060477,78.7625209 L57.5012793,78.7625209 L57.7112132,78.7625209 L57.7475136,78.5557492 L59.0826475,70.9506411 C60.6337574,70.6864308 62.1472242,70.2822062 63.6059211,69.7442468 L68.5625672,75.6604369 L68.6974285,75.8214057 L68.8792612,75.716356 L73.6397163,72.9661094 L73.8215439,72.8610625 L73.7494671,72.663829 L71.1018595,65.4188165 C72.3025457,64.419488 73.4120369,63.3098276 74.4136354,62.1069541 L81.6640326,64.7495325 L81.861322,64.8214393 L81.966216,64.6395302 L84.7112291,59.8790791 L84.8159955,59.6973914 L84.6552893,59.5626326 L78.7442862,54.6060089 C79.287141,53.1360186 79.6938252,51.6234645 79.95689,50.0816713 L87.5556551,48.7527958 L87.7625886,48.7166072 L87.7625886,48.5065332 L87.7625886,43.00604 L87.7625886,42.7961059 L87.5558167,42.7598057 L79.9568703,41.4257608 C79.6940271,39.8874047 79.2872837,38.3767499 78.7442887,36.9065422 L84.6552893,31.9499226 L84.8159956,31.8151638 L84.7112291,31.633476 L81.966216,26.8730299 L81.8613219,26.691121 L81.6640327,26.7630277 L74.4136349,29.4056043 C73.4119445,28.2026285 72.3024983,27.0930021 71.1018604,26.0937404 L73.7494671,18.8487321 L73.8215439,18.6514986 L73.6397163,18.5464517 L68.8792612,15.7962048 L68.6974288,15.6911552 L68.5625674,15.8521237 L63.6059183,21.7683039 C62.1471539,21.2303596 60.6336862,20.8261332 59.0826475,20.56192 L57.7475136,12.9568074 L57.7112132,12.7500356 L57.5012793,12.7500356 L52.0060477,12.7500356 L51.7961137,12.75 L51.7598134,12.9567718 L50.4246644,20.561974 L50.4246644,20.5619742 Z M54.7562943,26.6338316 C65.3196005,26.6338316 73.8839856,35.1950178 73.8839856,45.7562884 C73.8839856,56.3175471 65.3196004,64.8787241 54.7562943,64.8787241 C44.1940153,64.8787241 35.6338566,56.3185679 35.6338566,45.7562884 C35.6338566,35.193997 44.1940152,26.6338316 54.7562943,26.6338316 L54.7562943,26.6338316 Z"/>
    </g>
    <path fill="#BCC6D0" d="M110,55 L110,87.9925388 C110,89.101229 109.114561,90 107.996843,90 L2.00315669,90 C0.896843799,90 0,89.1081133 0,87.9925275 L0,72.5 C0,72.5 19.6844618,86.8183486 63.9518229,86.8183486 C108.219184,86.8183486 110,55 110,55 Z"/>
  </g>
</svg>
