<svg xmlns="http://www.w3.org/2000/svg" xmlns:xlink="http://www.w3.org/1999/xlink" width="95" height="129" viewBox="0 0 95 129">
  <defs>
    <linearGradient id="archive-c" x1="50%" x2="50%" y1="4.452%" y2="50%">
      <stop offset="0%" stop-color="#FFF"/>
      <stop offset="22.745%" stop-color="#FAFBFD"/>
      <stop offset="100%" stop-color="#E9EEF3"/>
    </linearGradient>
    <polygon id="archive-b" points="0 1 54.279 1 80 25.674 80 111 0 111"/>
    <filter id="archive-a" width="117.5%" height="112.7%" x="-8.8%" y="-5.5%" filterUnits="objectBoundingBox">
      <feMorphology in="SourceAlpha" operator="dilate" radius=".5" result="shadowSpreadOuter1"/>
      <feOffset dy="1" in="shadowSpreadOuter1" result="shadowOffsetOuter1"/>
      <feGaussianBlur in="shadowOffsetOuter1" result="shadowBlurOuter1" stdDeviation="2"/>
      <feComposite in="shadowBlurOuter1" in2="SourceAlpha" operator="out" result="shadowBlurOuter1"/>
      <feColorMatrix in="shadowBlurOuter1" values="0 0 0 0 0   0 0 0 0 0   0 0 0 0 0  0 0 0 0.3 0"/>
    </filter>
    <path id="archive-d" d="M55.25,2 L79.25,25 L57.2549466,25 C56.1476452,25 55.25,24.0983727 55.25,22.9991358 L55.25,2 Z"/>
  </defs>
  <g fill="none" fill-rule="evenodd" transform="translate(8 7)">
    <use fill="#000" filter="url(#archive-a)" xlink:href="#archive-b"/>
    <use fill="url(#archive-c)" xlink:href="#archive-b"/>
    <path stroke="#9EA8B5" stroke-width=".5" d="M0,0.75 L-0.25,0.75 L-0.25,1 L-0.25,111 L-0.25,111.25 L0,111.25 L80,111.25 L80.25,111.25 L80.25,111 L80.25,25.6742976 L80.1730674,25.4938879 L54.4519786,0.819590291 L54.2789112,0.75 L0,0.75 Z"/>
    <path fill="#DFE6ED" d="M61.1674736,105.834248 C81.8671101,97.1119616 79.9533987,41 79.9533987,41 L79.9533987,111 L0,111 L0,98.3642113 C0,98.3642113 40.4678371,114.556535 61.1674736,105.834248 Z"/>
    <path fill="#DFE6EC" d="M53.25,0.99822998 L54.2830811,0.99822998 L80.0001078,25.6772762 L80.0001078,27 L53.6968056,28.5897555 C52.5980381,28.6561643 51.7568918,27.8193653 51.8182574,26.7170372 L53.25,0.99822998 Z"/>
    <use fill="#FFF" xlink:href="#archive-d"/>
    <path stroke="#9EA8B5" stroke-width=".5" d="M55.4229763,1.81950295 L55,1.41415062 L55,2 L55,22.9991358 C55,24.2384524 56.0115825,25.25 57.2549466,25.25 L79.25,25.25 L79.8721907,25.25 L79.4229763,24.8195029 L55.4229763,1.81950295 Z"/>
    <path stroke="#727C8A" stroke-width=".5" d="M55,2 L55,22.2487861 C55,23.9004283 56.3501027,25.2393489 57.9996886,25.2393489 L79.4633638,25.2393489"/>
    <g fill-rule="nonzero" stroke-width=".5" transform="matrix(-1 0 0 1 45 1)">
      <path fill="#B5BDC4" stroke="#767E89" d="M5,60.236946 L8.75,60.236946 L8.75,62.974989 L5,62.974989 L5,60.236946 Z M1.25,57.498903 L5,57.498903 L5,60.236946 L1.25,60.236946 L1.25,57.498903 Z M5,54.76086 L8.75,54.76086 L8.75,57.498903 L5,57.498903 L5,54.76086 Z M1.25,52.022817 L5,52.022817 L5,54.76086 L1.25,54.76086 L1.25,52.022817 Z M5,49.284774 L8.75,49.284774 L8.75,52.022817 L5,52.022817 L5,49.284774 Z M1.25,46.546731 L5,46.546731 L5,49.284774 L1.25,49.284774 L1.25,46.546731 Z M5,43.808688 L8.75,43.808688 L8.75,46.546731 L5,46.546731 L5,43.808688 Z M1.25,41.070645 L5,41.070645 L5,43.808688 L1.25,43.808688 L1.25,41.070645 Z M5,38.332602 L8.75,38.332602 L8.75,41.070645 L5,41.070645 L5,38.332602 Z M1.25,35.594559 L5,35.594559 L5,38.332602 L1.25,38.332602 L1.25,35.594559 Z M5,32.856516 L8.75,32.856516 L8.75,35.594559 L5,35.594559 L5,32.856516 Z M1.25,30.118473 L5,30.118473 L5,32.856516 L1.25,32.856516 L1.25,30.118473 Z M5,27.38043 L8.75,27.38043 L8.75,30.118473 L5,30.118473 L5,27.38043 Z M1.25,24.642387 L5,24.642387 L5,27.38043 L1.25,27.38043 L1.25,24.642387 Z M5,21.904344 L8.75,21.904344 L8.75,24.642387 L5,24.642387 L5,21.904344 Z M1.25,19.166301 L5,19.166301 L5,21.904344 L1.25,21.904344 L1.25,19.166301 Z M5,16.428258 L8.75,16.428258 L8.75,19.166301 L5,19.166301 L5,16.428258 Z M1.25,13.690215 L5,13.690215 L5,16.428258 L1.25,16.428258 L1.25,13.690215 Z M5,10.952172 L8.75,10.952172 L8.75,13.690215 L5,13.690215 L5,10.952172 Z M1.25,8.214129 L5,8.214129 L5,10.952172 L1.25,10.952172 L1.25,8.214129 Z M5,5.476086 L8.75,5.476086 L8.75,8.214129 L5,8.214129 L5,5.476086 Z M1.25,2.738043 L5,2.738043 L5,5.476086 L1.25,5.476086 L1.25,2.738043 Z M5,0 L8.75,0 L8.75,2.738043 L5,2.738043 L5,0 Z"/>
      <path fill="#E1E6ED" stroke="#727C8A" d="M8.52576179,13.4914076 C8.26405431,15.5260372 6.66956175,17.1911799 4.98058694,17.1911799 C3.29161212,17.1911799 1.69628344,15.5260372 1.43624821,13.4914076 L1.11015901,10.9458727 C0.850123781,8.91042578 2.35180634,7.24528302 4.45131909,7.24528302 L5.51069091,7.24528302 C7.60936753,7.24528302 9.11188622,8.91042578 8.85101486,10.9450553 L8.52576179,13.4914076 Z"/>
      <path fill="#E7ECF1" stroke="#727C8A" d="M9.96247081,21.139651 L9.54559657,17.4455089 C9.21209717,14.4923145 7.16607839,12.0754717 4.99999982,12.0754717 C2.83392125,12.0754717 0.788736212,14.4923145 0.454403069,17.4455089 L0.0375288257,21.139651 C-0.295970569,24.0928454 1.63082218,26.5096881 4.3221623,26.5096881 L5.67867109,26.5096881 C8.36917745,26.5096881 10.2959702,24.0928454 9.96247081,21.139651 Z M4.99999982,24.3357523 C3.61847858,24.3357523 2.49875436,23.2410408 2.49875436,21.8903802 C2.49875436,20.5397197 3.61847858,19.4450081 4.99999982,19.4450081 C6.38152106,19.4450081 7.50124528,20.5397197 7.50124528,21.8903802 C7.50124528,23.2410408 6.38152106,24.3357523 4.99999982,24.3357523 Z"/>
    </g>
  </g>
</svg>
