<svg xmlns="http://www.w3.org/2000/svg" width="95" height="129" viewBox="0 0 95 129">
  <path fill="#28334C" d="M25.8004297,2.33380097 C25.8595898,2.6932233 25.6821094,2.99295631 25.0910156,3.29243204 C24.3224414,2.87306311 22.6667187,2.6332767 21.3070508,2.7531699 C19.8288086,2.87306311 18.587207,3.35237864 18.7646875,4.37069903 C19.0010742,5.3892767 20.4201562,5.98848544 22.9625195,5.74869903 C29.1705273,5.20943689 29.1113672,0.955800971 38.2166992,0.117063107 C45.3116016,-0.541834951 49.272793,1.67490291 49.8049805,4.37069903 C50.2188477,6.46754369 48.5042187,8.50469903 43.360332,8.92406796 C38.807793,9.34343689 36.1471094,8.0853301 35.9107227,6.8272233 C35.7924023,6.16806796 36.1471094,5.20943689 38.3347656,4.96990777 C38.5714062,5.98848544 39.8130078,7.06675243 42.7692383,6.7672767 C44.8977344,6.58743689 46.6712695,5.80864563 46.4348828,4.61048544 C46.1984961,3.35237864 43.9516797,2.6332767 40.4041016,2.93300971 C33.1908789,3.59190777 31.4173437,7.60601456 25.2682422,8.1452767 C20.8931836,8.56464563 17.3456055,6.94660194 16.8725781,4.55053883 C16.6953516,3.65185437 16.6953516,1.55500971 21.3070508,1.13564078 C23.6719336,0.955800971 25.564043,1.3751699 25.8004297,2.33380097 L25.8004297,2.33380097 Z M2.74193359,27.3765583 C0.731757812,29.9527184 -0.155136719,32.9479903 0.0220898437,35.8838301 C0.199570312,38.8194126 1.61839844,41.215733 3.86521484,43.0730485 C6.23009766,44.9301068 8.77246094,45.4693689 11.6697852,44.9301068 C12.7930664,44.7505243 14.034668,44.1513155 15.1579492,43.7918932 C12.7930664,43.7918932 10.7828906,43.0131019 8.77246094,41.3955728 C6.58505859,39.7777864 5.10681641,37.5013592 4.75210937,34.7453592 C4.21992187,32.169199 4.75210937,29.7728786 6.17119141,27.676034 C7.7675,25.6391359 9.83683594,24.500665 12.5564258,24.1412427 C15.2762695,23.9616602 17.6411523,24.6805049 20.0060352,26.3579806 C19.4741016,25.5791893 18.7055273,25.0399272 17.9961133,24.3210825 C15.6309766,22.7032961 13.0886133,21.9245049 9.95490234,22.7032961 C7.11699219,23.3027621 4.75210937,24.8001408 2.74193359,27.3765583 Z M34.4327344,13.5371262 C26.8053906,13.5371262 20.0062891,12.758335 15.0987891,11.6798107 C9.83683594,10.3617573 7.05783203,8.92406796 7.05783203,7.06675243 C7.05783203,6.28796117 7.41279297,5.62880583 8.47716797,4.85001456 C5.16597656,6.16806796 3.3921875,7.24659223 3.3921875,8.92406796 C3.56966797,10.7811262 6.52589844,12.6384417 12.5564258,14.0763883 C18.2325,15.5140777 25.5048828,16.2928689 34.2552539,16.2928689 C43.1831055,16.2928689 50.2780078,15.5140777 55.954082,14.0763883 C61.9846094,12.6384417 64.8816797,10.7214369 64.8816797,8.92406796 C64.8816797,7.60601456 63.580918,6.34790777 61.2160352,5.3892767 C61.7482227,5.74869903 62.1620898,6.34790777 62.1620898,7.00680583 C62.1620898,8.86412136 59.4422461,10.3617573 53.9436523,11.6198641 C48.8589258,12.758335 42.3553711,13.5371262 34.4327344,13.5371262 L34.4327344,13.5371262 Z M56.1904687,18.6894466 C50.5143945,20.0075 43.2422656,20.9061845 34.4916406,20.9061845 C25.564043,20.9061845 18.2916602,19.9475534 12.6155859,18.6894466 C7.53085937,17.3713932 4.81152344,15.9334466 3.86521484,14.4358107 C4.81126953,20.9061845 6.99892578,27.0168786 9.89599609,32.4089854 C12.0836523,35.7639369 14.2710547,38.6995194 16.4587109,41.8748883 C17.4047656,43.7319466 18.0550195,45.5892621 18.4688867,47.4465777 C19.8879687,49.4834757 21.9575586,50.8015291 24.499668,51.5203738 C27.6333789,52.6585874 30.8851562,53.1379029 34.1963477,52.9583204 L34.5508008,52.9583204 C37.8617383,53.1379029 41.3504102,52.5986408 44.5430273,51.5203738 C46.9079102,50.7415825 48.9180859,49.4834757 50.3963281,47.4465777 L50.5735547,47.4465777 C50.9282617,45.5890049 51.5196094,43.7319466 52.4065039,41.8748883 C54.5941602,38.6995194 56.7818164,35.7639369 58.9692187,32.4089854 C61.8662891,27.0768252 63.8767187,20.9661311 65,14.4358107 C63.8175586,16.1132864 61.0977148,17.551233 56.1904687,18.6894466 L56.1904687,18.6894466 Z" transform="translate(16 52)"/>
</svg>
