<svg xmlns="http://www.w3.org/2000/svg" width="95" height="129" viewBox="0 0 95 129">
  <g fill="none" fill-rule="evenodd" transform="translate(21 33)">
    <polygon fill="#1F62AE" fill-rule="nonzero" points="49.004 69.972 27.036 76 5.069 69.972 0 14 54.073 14"/>
    <polygon fill="#347DC6" fill-rule="nonzero" points="27.034 17.875 27.034 71.641 44.862 66.328 49.604 17.875"/>
    <polygon fill="#FFF" fill-rule="nonzero" points="43.184 25.625 10.827 25.625 11.586 33.375 27.034 33.375 12.069 39.168 12.782 46.938 33.797 46.938 33.133 54.688 27.034 56.606 20.973 54.657 20.34 50.813 13.137 50.813 14.023 60.475 27.034 64.356 40.026 60.473 41.94 39.168 27.085 39.168 42.483 33.375"/>
    <path fill="#323D49" d="M19.9924859,9.12310136 C20.9921179,9.12310136 21.8301502,8.85212086 22.5066079,8.31015173 C23.1830657,7.76818261 23.5714711,7.05761152 23.6718357,6.17841716 L22.1422861,6.17841716 C22.0379068,6.66819667 21.7920171,7.05660205 21.4046096,7.34364496 C21.017202,7.63068786 20.5464988,7.77420717 19.9924859,7.77420717 C19.2538021,7.77420717 18.6686849,7.48616493 18.2371169,6.91007182 C17.8055489,6.33397871 17.5897682,5.55014253 17.5897682,4.55853976 C17.5897682,3.57095157 17.8045453,2.78912265 18.234106,2.21302954 C18.6636667,1.63693643 19.2477802,1.34889419 19.9864641,1.34889419 C20.5364624,1.34889419 21.0051583,1.5054607 21.3925659,1.81859842 C21.7799734,2.13173614 22.0278704,2.5512541 22.1362642,3.07716488 L23.6658139,3.07716488 C23.577493,2.17789759 23.1890876,1.44022845 22.5005861,0.864135343 C21.8120846,0.288042234 20.9740523,0 19.9864641,0 C18.7539862,0 17.7814672,0.40747438 17.0688782,1.22243536 C16.3562892,2.03739635 16,3.15142729 16,4.5645616 C16,5.97368134 16.3572928,7.08570501 17.0718891,7.900666 C17.7864855,8.71562698 18.760008,9.12310136 19.9924859,9.12310136 Z M24.9966425,6.5517718 C25.0367884,7.33863068 25.3629686,7.96389309 25.975193,8.42757779 C26.5874174,8.89126249 27.3913262,9.12310136 28.3869436,9.12310136 C29.4427797,9.12310136 30.2767975,8.87821528 30.8890219,8.38843577 C31.5012462,7.89865626 31.8073538,7.23224496 31.8073538,6.38918188 C31.8073538,5.72677517 31.6096384,5.2018759 31.2142017,4.81446834 C30.818765,4.42706078 30.1794517,4.13299676 29.2962428,3.93226745 L28.2966158,3.70343719 C27.7586613,3.57898502 27.3712595,3.42342214 27.134399,3.23674388 C26.8975384,3.05006563 26.7791099,2.80819044 26.7791099,2.51111107 C26.7791099,2.13373997 26.9306582,1.83265053 27.2337595,1.60783371 C27.5368607,1.38301688 27.9393169,1.27061016 28.4411402,1.27061016 C28.918876,1.27061016 29.3133031,1.38402051 29.6244335,1.61084463 C29.935564,1.83766875 30.1192285,2.14377635 30.1754327,2.52917661 L31.6628295,2.52917661 C31.6307128,1.78647818 31.3145689,1.17928114 30.7143882,0.707567267 C30.1142076,0.235853397 29.3584731,0 28.4471621,0 C27.4716176,0 26.6887851,0.239867923 26.0986409,0.719610965 C25.5084968,1.19935401 25.2134291,1.83063821 25.2134291,2.6134825 C25.2134291,3.25983087 25.4021118,3.77971197 25.7794829,4.17314141 C26.156854,4.56657085 26.7409675,4.85561672 27.531841,5.04028768 L28.6579268,5.29922719 C29.2159542,5.42769395 29.6204177,5.59329314 29.8713294,5.79602974 C30.122241,5.99876634 30.2476949,6.25870689 30.2476949,6.5758592 C30.2476949,6.94520112 30.0820957,7.24930146 29.7508924,7.48816933 C29.419689,7.72703721 28.9971602,7.84646935 28.4832931,7.84646935 C27.9292803,7.84646935 27.4756388,7.72904447 27.1223553,7.49419118 C26.7690717,7.25933789 26.5663381,6.94520124 26.5141485,6.5517718 L24.9966425,6.5517718 Z M33.1502262,6.5517718 C33.190372,7.33863068 33.5165523,7.96389309 34.1287767,8.42757779 C34.741001,8.89126249 35.5449099,9.12310136 36.5405272,9.12310136 C37.5963634,9.12310136 38.4303811,8.87821528 39.0426055,8.38843577 C39.6548299,7.89865626 39.9609375,7.23224496 39.9609375,6.38918188 C39.9609375,5.72677517 39.7632221,5.2018759 39.3677854,4.81446834 C38.9723486,4.42706078 38.3330354,4.13299676 37.4498264,3.93226745 L36.4501995,3.70343719 C35.9122449,3.57898502 35.5248432,3.42342214 35.2879826,3.23674388 C35.051122,3.05006563 34.9326935,2.80819044 34.9326935,2.51111107 C34.9326935,2.13373997 35.0842419,1.83265053 35.3873431,1.60783371 C35.6904444,1.38301688 36.0929006,1.27061016 36.5947239,1.27061016 C37.0724596,1.27061016 37.4668868,1.38402051 37.7780172,1.61084463 C38.0891476,1.83766875 38.2728122,2.14377635 38.3290164,2.52917661 L39.8164131,2.52917661 C39.7842964,1.78647818 39.4681525,1.17928114 38.8679719,0.707567267 C38.2677913,0.235853397 37.5120568,0 36.6007457,0 C35.6252013,0 34.8423687,0.239867923 34.2522246,0.719610965 C33.6620804,1.19935401 33.3670128,1.83063821 33.3670128,2.6134825 C33.3670128,3.25983087 33.5556955,3.77971197 33.9330666,4.17314141 C34.3104377,4.56657085 34.8945512,4.85561672 35.6854247,5.04028768 L36.8115104,5.29922719 C37.3695379,5.42769395 37.7740014,5.59329314 38.024913,5.79602974 C38.2758247,5.99876634 38.4012786,6.25870689 38.4012786,6.5758592 C38.4012786,6.94520112 38.2356794,7.24930146 37.904476,7.48816933 C37.5732727,7.72703721 37.1507438,7.84646935 36.6368768,7.84646935 C36.0828639,7.84646935 35.6292225,7.72904447 35.2759389,7.49419118 C34.9226553,7.25933789 34.7199218,6.94520124 34.6677322,6.5517718 L33.1502262,6.5517718 Z"/>
  </g>
</svg>
