<svg xmlns="http://www.w3.org/2000/svg" width="95" height="129" viewBox="0 0 95 129">
  <g fill="none" fill-rule="evenodd">
    <g transform="translate(23 33)">
      <path stroke="#000" stroke-linecap="round" stroke-linejoin="round" d="M5.08615242 34.8975867C3.47955658 35.1241105 1.60851732 35.5923724.634808314 36.1876616-.246309469 36.7265612-.130660508 38.3128316.496221709 39.0975748 1.15781062 39.9261497 1.93420785 39.881835 2.87152887 39.4483486 3.48676212 39.1637449 4.2277321 38.5295748 4.99320092 37.8192126 5.0124157 37.2002568 5.03391224 36.580818 5.05841109 35.9627075 5.07294226 35.5957534 5.08194919 35.2412364 5.08615242 34.8975867zM51.2454596 35.6442942C50.3447667 35.093682 48.6768037 34.6521054 47.160157 34.4095221 47.1981062 35.2325425 47.2503464 36.1374303 47.3209607 37.1581156 47.3336905 37.3424983 47.3463002 37.5243452 47.3585497 37.7049847 47.9540878 38.2337415 48.5210439 38.679182 49.0086189 38.9048605 49.9461801 39.3384677 50.7223372 39.3827823 51.3839261 38.5542075 52.0109284 37.7694643 52.1266975 36.1829524 51.2454596 35.6442942zM6.2652194 67.9624558C5.0818291 70.0780867 8.17468822 71.8204847 9.77792148 70.3533929 11.0878891 69.1546037 12.1218845 68.1379031 14.3721755 67.8058452 12.6488499 67.0927058 11.1296813 66.2021871 9.83844804 65.1649592 8.2631963 65.7842772 6.98793533 66.6706905 6.2652194 67.9624558zM42.1218014 69.7739218C43.447261 71.4985697 46.7405543 69.9323435 45.7777737 67.7065901 45.1452471 66.2442075 43.9502079 65.0312908 42.4539769 64.3020918 41.4742633 65.2219524 40.310448 66.0757636 38.9343095 66.8217466 40.4570808 67.5468401 41.2032148 68.5785136 42.1218014 69.7739218z"/>
      <path stroke="#000" stroke-linecap="round" stroke-linejoin="round" d="M.245949192 38.6872721C.64621709 38.3978384.929034642 38.0846173 1.66111778 37.7095731L.245949192 38.6872721zM51.6343187 38.1439048C51.2340508 37.8544711 50.9512333 37.54125 50.2192702 37.1662058L51.6343187 38.1439048zM6.94986605 70.3443367C7.05794919 69.7465119 7.38219861 68.7414031 8.35494688 67.8718946L6.94986605 70.3443367zM44.8004619 70.1500527C44.7973395 69.542568 44.6438614 68.3067092 43.7357229 67.4700442L44.8004619 70.1500527zM4.57203695 8.75147449C4.57203695 7.90997959 5.24947806 7.22787245 6.08520092 7.22787245 6.57529792 7.22787245 7.00955196 7.46345238 7.28612471 7.82726701 7.95491917 6.72712925 8.7612194 5.77816837 9.67752425 4.96203061 9.22357506 4.52033333 8.48596767 4.19769388 7.32815704 4.04132483 3.59928868 3.53732143 1.69378291 5.38960034 1.25844804 7.87206463.838364896 10.2674694 2.11963048 12.8400119 4.98179215 13.5088367 5.2772194 12.3393895 5.63917783 11.2666616 6.05661894 10.2736276 5.23422633 10.258051 4.57203695 9.58318878 4.57203695 8.75147449z"/>
      <path fill="#000" fill-rule="nonzero" d="M6.08520092,7.22787245 C5.24947806,7.22787245 4.57203695,7.90997959 4.57203695,8.75147449 C4.57203695,9.58318878 5.23422633,10.258051 6.05661894,10.2735068 C6.35432794,9.56519728 6.68001848,8.89709694 7.03080831,8.2644966 C7.11331178,8.11585544 7.19893764,7.97059524 7.28612471,7.82714626 C7.00955196,7.46345238 6.57517783,7.22787245 6.08520092,7.22787245 Z"/>
      <path stroke="#000" stroke-linecap="round" stroke-linejoin="round" d="M49.3554457,6.8940034 C48.9201109,4.41141837 47.0146051,2.5592602 43.2858568,3.06326361 C41.9930624,3.23798639 41.224351,3.61991327 40.7892564,4.14335714 C41.6139307,4.85939456 42.381321,5.68229422 43.1036767,6.62087075 C43.1387436,6.66639286 43.1721293,6.71239796 43.2065958,6.75804082 C43.4823279,6.38432483 43.9227067,6.14113776 44.4204896,6.14113776 C45.2562125,6.14113776 45.9336536,6.8232449 45.9336536,7.6647398 C45.9336536,8.40239116 45.4130531,9.01736224 44.7215612,9.15791327 C45.2351963,10.1580714 45.6516767,11.2346633 45.9850531,12.4352636 C48.5986236,11.6442415 49.7578753,9.18834184 49.3554457,6.8940034 Z"/>
      <path fill="#000" fill-rule="nonzero" d="M45.9336536,7.6647398 C45.9336536,6.8232449 45.2562125,6.14113776 44.4204896,6.14113776 C43.9225866,6.14113776 43.4823279,6.38432483 43.2065958,6.75804082 C43.7848406,7.52418878 44.2882679,8.3140034 44.7215612,9.15791327 C45.4130531,9.01736224 45.9336536,8.40239116 45.9336536,7.6647398 Z"/>
      <path stroke="#000" stroke-linecap="round" stroke-linejoin="round" d="M43.2065958,6.75804082 C43.1721293,6.71239796 43.1387436,6.66639286 43.1036767,6.62087075 C42.3812009,5.68229422 41.6139307,4.85939456 40.7892564,4.14335714 C37.2108637,1.0367449 32.5530808,-0.0574761905 25.8103741,0.143811224 C19.964037,0.318534014 13.7443326,1.33994388 9.67752425,4.96203061 C8.7612194,5.77804762 7.95503926,6.7270085 7.28612471,7.82726701 C7.19893764,7.97071599 7.11331178,8.11597619 7.03080831,8.26461735 C6.68001848,8.89721769 6.35432794,9.56519728 6.05661894,10.2736276 C5.63917783,11.2666616 5.2772194,12.3393895 4.98179215,13.5088367 C4.40931178,15.7752823 4.08554273,18.4031276 4.08566282,21.5092568 C4.085903,26.9589898 5.15040185,29.663148 5.08627252,34.8977075 C5.08206928,35.2413571 5.07306236,35.5958741 5.05853118,35.9628282 C5.03403233,36.5809388 5.0125358,37.2003776 4.99332102,37.8193333 C4.79480831,44.2319133 4.86578291,50.6019898 4.81330254,54.9699388 C4.7651455,58.9792653 6.57217552,62.5413401 9.83856813,65.1650799 C11.1298014,66.2023078 12.64897,67.0928265 14.3722956,67.805966 C17.3881755,69.0541412 21.0275751,69.760398 25.1618753,69.760398 C31.1983187,69.760398 35.6646744,68.5949354 38.9345497,66.8218673 C40.3106882,66.0758844 41.4743834,65.2220731 42.4542171,64.3022126 C44.8991778,62.0070289 46.1974965,59.3005765 46.7786236,56.8283759 C48.1560831,50.9693061 47.9754642,46.6758588 47.3587898,37.7053469 C47.3464203,37.5247075 47.3339307,37.3428605 47.3212009,37.1584779 C47.2505866,36.1377925 47.1984665,35.2329048 47.1603972,34.4098844 C46.9522771,29.9007806 47.1680831,27.851199 47.102873,22.7049065 C47.0472702,18.3252449 46.7191778,15.0783231 45.9852933,12.4356259 C45.6519169,11.2351463 45.2354365,10.1585544 44.7218014,9.15827551 C44.2882679,8.3140034 43.7849607,7.52406803 43.2065958,6.75804082 Z"/>
      <path stroke="#000" stroke-linecap="round" stroke-linejoin="round" d="M16.9475566,17.2301786 C20.5888095,17.2301786 23.5406282,14.3595472 23.5406282,10.8184439 C23.5406282,7.27734059 20.5888095,4.40670918 16.9475566,4.40670918 C13.3063037,4.40670918 10.354485,7.27734059 10.354485,10.8184439 C10.354485,14.3595472 13.3063037,17.2301786 16.9475566,17.2301786 Z"/>
      <path fill="#000" fill-rule="nonzero" d="M13.4888961,13.4264864 C14.7424422,13.4264864 15.758642,12.4047362 15.758642,11.1443435 C15.758642,9.88395084 14.7424422,8.86220068 13.4888961,8.86220068 C12.23535,8.86220068 11.2191501,9.88395084 11.2191501,11.1443435 C11.2191501,12.4047362 12.23535,13.4264864 13.4888961,13.4264864 Z"/>
      <path fill="#FFF" fill-rule="nonzero" d="M14.4616443,12.3397517 C14.8198004,12.3397517 15.1101432,12.0478231 15.1101432,11.6877109 C15.1101432,11.3275987 14.8198004,11.0356701 14.4616443,11.0356701 C14.1034883,11.0356701 13.8131455,11.3275987 13.8131455,11.6877109 C13.8131455,12.0478231 14.1034883,12.3397517 14.4616443,12.3397517 Z"/>
      <path stroke="#000" stroke-linecap="round" stroke-linejoin="round" d="M33.4842771,16.4693435 C37.12553,16.4693435 40.0773487,13.5987121 40.0773487,10.0576088 C40.0773487,6.51650555 37.12553,3.64587415 33.4842771,3.64587415 C29.8430242,3.64587415 26.8912055,6.51650555 26.8912055,10.0576088 C26.8912055,13.5987121 29.8430242,16.4693435 33.4842771,16.4693435 Z"/>
      <path fill="#000" fill-rule="nonzero" d="M30.0256166,12.6658929 C31.2791627,12.6658929 32.2953626,11.6441427 32.2953626,10.38375 C32.2953626,9.1233573 31.2791627,8.10160714 30.0256166,8.10160714 C28.7720705,8.10160714 27.7558707,9.1233573 27.7558707,10.38375 C27.7558707,11.6441427 28.7720705,12.6658929 30.0256166,12.6658929 Z"/>
      <path fill="#FFF" fill-rule="nonzero" d="M30.9983649,11.5791582 C31.3565209,11.5791582 31.6468637,11.2872295 31.6468637,10.9271173 C31.6468637,10.5670051 31.3565209,10.2750765 30.9983649,10.2750765 C30.6402089,10.2750765 30.3498661,10.5670051 30.3498661,10.9271173 C30.3498661,11.2872295 30.6402089,11.5791582 30.9983649,11.5791582 Z"/>
      <path stroke="#000" stroke-linecap="round" stroke-linejoin="round" d="M25.4557413 20.327131C24.1606651 20.3498316 23.9664758 20.9307517 22.8515381 21.1309524 22.8121478 21.8224779 22.7620693 22.7690238 22.7118707 23.8956054 22.6037875 26.3226463 25.6661432 25.7792789 25.6661432 24.3302993L25.6661432 20.3296667C25.5988915 20.327131 25.5295982 20.3259235 25.4557413 20.327131zM25.6661432 24.3301786C25.6661432 25.7791582 28.7284988 26.3225255 28.6204157 23.8954847 28.5688961 22.7384745 28.5174965 21.7715221 28.4776259 21.0756497 27.0738661 21.0112908 26.9026143 20.3737398 25.6661432 20.3295459L25.6661432 24.3301786z"/>
      <path stroke="#000" stroke-linecap="round" stroke-linejoin="round" d="M30.2241293,17.9066105 C29.7012471,17.3409048 29.0807298,17.0326344 28.251612,16.8837517 C27.8115935,17.5316871 26.7155104,17.9908929 25.431963,17.9908929 C24.1976536,17.9908929 23.1367575,17.5661003 22.6657552,16.9572874 C21.7781524,17.1283878 21.1342171,17.462619 20.6061709,18.0754167 C19.5701339,19.277949 20.073321,21.0809626 21.465552,21.1780442 C22.0608499,21.2195816 22.5012286,21.1938622 22.8515381,21.1308316 C23.9664758,20.930631 24.1606651,20.3497109 25.4557413,20.3270102 C25.5295982,20.3258027 25.5988915,20.3270102 25.6661432,20.3294252 C26.9024942,20.373619 27.073746,21.0111701 28.4776259,21.0755289 C28.7552794,21.0882075 29.08097,21.0786684 29.4730716,21.0373724 C30.8612194,20.8916293 31.3014781,19.0720731 30.2241293,17.9066105 Z"/>
      <path fill="#000" fill-rule="nonzero" d="M25.4320831,17.9908929 C26.7156305,17.9908929 27.8115935,17.5316871 28.2517321,16.8837517 C28.3846744,16.687898 28.4585312,16.4750187 28.4585312,16.2521173 C28.4585312,15.2918061 27.1037691,14.5133418 25.4322032,14.5133418 C23.7608776,14.5133418 22.4058753,15.2918061 22.4058753,16.2521173 C22.4058753,16.5032738 22.4993072,16.741631 22.6659954,16.9572874 C23.1367575,17.5661003 24.1977737,17.9908929 25.4320831,17.9908929 Z"/>
    </g>
  </g>
</svg>
