<svg xmlns="http://www.w3.org/2000/svg" width="95" height="129" viewBox="0 0 95 129">
  <g fill="none" fill-rule="evenodd" transform="translate(21 33)">
    <polygon fill="#E44D26" fill-rule="nonzero" points="49.02 69.972 27.045 76 5.071 69.972 0 14 54.091 14"/>
    <polygon fill="#FF6C39" fill-rule="nonzero" points="27.043 17.875 27.043 71.641 44.877 66.328 49.621 17.875"/>
    <polygon fill="#FFF" fill-rule="nonzero" points="43.198 25.625 10.831 25.625 11.59 33.375 12.786 46.938 33.81 46.938 33.124 54.657 27.043 56.606 20.972 54.657 20.568 50.813 13.141 50.813 14.028 60.475 27.043 64.356 40.04 60.473 41.952 39.188 19.804 39.188 19.321 33.375 42.497 33.375"/>
    <path fill="#323D49" d="M17.511021,8.90583671 L17.511021,-8.8817842e-16 L15.924881,-8.8817842e-16 L15.924881,3.70305061 L11.5923118,3.70305061 L11.5923118,-8.8817842e-16 L10,-8.8817842e-16 L10,8.90583671 L11.5923118,8.90583671 L11.5923118,5.04232058 L15.924881,5.04232058 L15.924881,8.90583671 L17.511021,8.90583671 Z M23.5161347,8.90583671 L23.5161347,1.33926997 L26.2625639,1.33926997 L26.2625639,-8.8817842e-16 L19.1835655,-8.8817842e-16 L19.1835655,1.33926997 L21.923823,1.33926997 L21.923823,8.90583671 L23.5161347,8.90583671 Z M37.1248457,8.90583671 L37.1248457,-8.8817842e-16 L35.2548051,-8.8817842e-16 L32.582437,6.56674308 L32.4713454,6.56674308 L29.7989773,-8.8817842e-16 L27.9289367,-8.8817842e-16 L27.9289367,8.90583671 L29.4101569,8.90583671 L29.4101569,2.59830718 L29.4965615,2.59830718 L31.9590901,8.58490566 L33.0946923,8.58490566 L35.5572209,2.59830718 L35.6436255,2.59830718 L35.6436255,8.90583671 L37.1248457,8.90583671 Z M45,7.54187974 L40.9143008,7.54187974 L40.9143008,-8.8817842e-16 L39.3219891,-8.8817842e-16 L39.3219891,8.90583671 L45,8.90583671 L45,7.54187974 Z"/>
  </g>
</svg>
