<svg xmlns="http://www.w3.org/2000/svg" width="95" height="129" viewBox="0 0 95 129">
  <g fill="none" transform="translate(25 34)">
    <path fill="#569A83" d="M9.8544375,51.1752577 C10.1941875,51.1752577 10.3494375,51.3408247 10.3494375,51.6719588 L10.3494375,68.3797397 C10.3494375,68.9936546 10.2331875,69.5878144 9.990375,70.1332448 C9.7475625,70.6788634 9.436875,71.1563737 9.0290625,71.5653995 C8.6214375,71.9746134 8.1455625,72.2961521 7.602,72.5300155 C7.0501661,72.7687081 6.45541948,72.8913319 5.8545,72.8903119 L4.495125,72.8903119 C3.8835,72.8903119 3.291375,72.7736624 2.747625,72.5300155 C2.203875,72.2961521 1.7281875,71.9746134 1.320375,71.5653995 C0.9125625,71.1563737 0.5923125,70.6788634 0.35925,70.133433 C0.11625,69.5878144 0,69.00325 0,68.3799278 L0,64.5511907 C0,64.2102732 0.15525,64.0055722 0.4659375,63.9081134 L3.70875,63.0509278 C4.0194375,62.9534691 4.1746875,63.0703067 4.1746875,63.4114124 L4.1746875,68.2043892 C4.1746875,68.4480361 4.2525,68.6427655 4.42725,68.8083325 C4.59225,68.9738995 4.7960625,69.0617629 5.029125,69.0617629 L5.3203125,69.0617629 C5.553375,69.0617629 5.7571875,68.9838711 5.9221875,68.8085206 C6.087375,68.6429536 6.17475,68.4382526 6.17475,68.2045773 L6.17475,51.6817423 C6.17475,51.3408247 6.33975,51.1850412 6.66975,51.1850412 C6.6796875,51.1752577 9.8544375,51.1752577 9.8544375,51.1752577 Z M23.718375,72.1401804 C23.767125,72.4812861 23.6214375,72.6370696 23.29125,72.6370696 L20.048625,72.6370696 C19.7379375,72.6370696 19.563,72.4715026 19.514625,72.1403686 L19.22325,68.6427655 L17.009625,68.6427655 L16.7184375,72.1403686 C16.669875,72.4812861 16.485375,72.6370696 16.1844375,72.6370696 L12.9418125,72.6370696 C12.601875,72.6370696 12.4659375,72.4715026 12.5145,72.1403686 L15.19425,51.6819304 C15.242625,51.3408247 15.427125,51.1850412 15.7670625,51.1850412 L20.47575,51.1850412 C20.8155,51.1850412 21,51.3506082 21.0485625,51.6817423 L23.7185625,72.1401804 L23.718375,72.1401804 Z M18.9418125,64.6290825 L18.271875,56.7185541 L17.9805,56.7185541 L17.31075,64.6290825 L18.9418125,64.6290825 Z M31.9125,51.1752577 C32.524125,51.1752577 33.1066875,51.2920954 33.66,51.5357423 C34.20375,51.779201 34.6794375,52.0909562 35.08725,52.5001701 C35.494875,52.909384 35.8153125,53.3867062 36.048375,53.9323247 C36.2863146,54.4860413 36.4085823,55.0828323 36.407625,55.6858299 L36.407625,68.1362809 C36.407625,68.7500077 36.291,69.3441675 36.048375,69.8897861 C35.8055625,70.4354046 35.494875,70.9127268 35.08725,71.3219407 C34.6794375,71.7311546 34.20375,72.0525052 33.66,72.2863686 C33.11625,72.5300155 32.533875,72.6468531 31.9125,72.6468531 L26.5725,72.6468531 C26.23275,72.6468531 26.0775,72.4812861 26.0775,72.1501521 L26.0775,51.6819304 C26.0775,51.3408247 26.2425,51.1850412 26.5725,51.1850412 L31.9125,51.1752577 L31.9125,51.1752577 Z M32.2425,55.8611804 C32.2425,55.627317 32.164875,55.4228041 31.990125,55.2572371 C31.825125,55.0916701 31.621125,55.0039948 31.38825,55.0039948 L30.2521875,55.0039948 L30.2521875,68.8085206 L31.38825,68.8085206 C31.621125,68.8085206 31.825125,68.7304407 31.990125,68.5550902 C32.155125,68.3895232 32.2425,68.1850103 32.2425,67.9511469 L32.2425,55.8611804 L32.2425,55.8611804 Z M48,68.9545206 L48,72.1401804 C48,72.4812861 47.835,72.6370696 47.505,72.6370696 L39.766875,72.6370696 C39.427125,72.6370696 39.271875,72.4715026 39.271875,72.1403686 L39.271875,51.6817423 C39.271875,51.3406366 39.436875,51.1848531 39.766875,51.1848531 L47.4950625,51.1848531 C47.835,51.1848531 47.99025,51.3504201 47.99025,51.6815541 L47.99025,54.8574304 C47.99025,55.1985361 47.82525,55.3545077 47.49525,55.3545077 L43.42725,55.3545077 L43.42725,59.436299 L46.9515,59.436299 C47.29125,59.436299 47.4465,59.601866 47.4465,59.9331881 L47.4465,63.1188479 C47.4465,63.4597655 47.2815,63.6157371 46.9515,63.6157371 L43.42725,63.6157371 L43.42725,68.4478479 L47.4950625,68.4478479 C47.835,68.4478479 48,68.6134149 48,68.9543325 L48,68.9545206 Z"/>
    <path fill="#C1272D" d="M36.1996875,27.0402912 C36.4205625,27.2621134 36.440625,27.6248557 36.179625,27.8064149 C35.5366875,28.2297397 34.7131875,28.1691572 33.949875,28.0886314 C32.6641875,27.9475232 31.137375,27.8869407 30.4745625,26.677549 C30.4545,26.677549 30.4545,26.6574175 30.4344375,26.6372861 C29.5906875,26.1736985 31.017,25.8510309 31.4188125,25.7906366 C32.3225625,25.6696598 33.286875,25.9116134 34.17075,26.113116 C34.914,26.2542242 35.617125,26.4559149 36.1995,27.0402912 L36.1996875,27.0402912 Z M47.9308125,46.2699588 C47.3281875,46.6932835 47.5895625,47.4189562 47.1676875,47.9228067 C46.7458125,48.4065258 45.7213125,48.4065258 45.178875,48.4065258 C42.868875,48.4268454 40.618875,48.2452861 38.349,48.4268454 C37.7664375,48.4671082 37.24425,48.547634 36.7018125,48.6887423 C36.541125,48.7291933 36.2799375,48.8298505 36.0991875,48.7291933 C35.6371875,48.4872397 35.2153125,47.7213041 34.6126875,47.9630696 C34.1105625,48.1848918 33.7288125,48.9105644 33.1261875,48.4671082 C32.0214375,47.6405902 31.0974375,48.3863943 29.9323125,48.6082165 C28.726875,48.849982 27.582,48.1848918 26.3968125,48.5073711 C25.5129375,48.7694562 24.6691875,49.0315412 23.76525,48.7291933 C22.8615,48.4065258 22.6201875,47.7011727 23.40375,47.0358943 C24.649125,46.0078737 26.1958125,45.8468222 27.7425,45.9676108 C30.093,46.1691134 32.4230625,45.9877423 34.773375,45.8667655 C34.8538125,45.8667655 34.8939375,45.9072165 34.8939375,45.9676108 C35.898375,46.3708041 36.541125,45.5644175 37.1236875,44.8590644 C37.2039375,44.7582191 37.3445625,44.8186134 37.384875,44.8791959 C38.228625,46.1288505 39.2529375,44.7179562 40.3175625,44.838933 C40.5988125,44.8590644 40.86,44.9395902 41.04075,45.2016753 C41.1211875,45.3226521 41.14125,45.4637603 41.14125,45.6048686 C41.181375,46.2498273 42.0050625,46.1087191 41.985,45.4637603 C41.985,45.3629149 42.105375,45.2620696 42.205875,45.3025206 C43.049625,45.6449433 44.1343125,46.0885876 44.8171875,45.2016753 C45.39975,44.4558711 45.4801875,43.3875876 45.540375,42.4805438 C45.6609375,40.0414407 45.50025,37.5421314 45.3195,35.1233479 C45.178875,32.7649588 44.9176875,30.3663067 45.1989375,28.0077294 C45.4801875,25.6696598 45.460125,23.3919845 45.42,21.0335954 C45.39975,19.8040722 45.3395625,18.574549 45.42,17.3450258 C45.460125,16.2161598 45.6609375,15.006768 45.540375,13.8779021 C45.42,12.870201 44.8171875,12.0034201 44.696625,11.0156624 C44.57625,10.1088067 44.696625,9.16131186 44.917875,8.27439948 C45.03825,7.73009794 45.3195,7.06500773 45.2994375,6.50057474 C45.279375,6.01685567 45.259125,5.51281701 45.279375,5.02928608 C45.279375,4.78733247 45.2390625,4.40427062 45.42,4.20276804 C45.70125,3.85996907 45.841875,3.35611856 45.178875,3.29572423 C43.591875,3.09403351 41.96475,2.08614433 40.4581875,3.07390206 C40.47825,3.41651289 40.4985,3.79957474 40.4180625,4.14218557 L40.6389375,4.42440206 C41.0206875,4.58564175 41.4024375,4.64622423 41.824125,4.66635567 C42.306375,4.66635567 42.8285625,4.54537887 43.310625,4.58564175 C43.7124375,4.62590464 44.053875,4.98883505 43.91325,5.45242268 C43.8129375,5.79503351 43.511625,6.07725 43.330875,6.35946649 C43.0093125,6.86331701 43.0696875,7.58898969 43.0696875,8.17355412 C43.049625,9.64503093 43.0696875,11.1165077 43.1098125,12.5475335 C43.1499375,13.7571134 43.2705,14.9866366 43.3509375,16.1960284 C43.371,16.2161598 43.45125,16.2362912 43.45125,16.2968737 C43.4915625,17.6675052 43.9535625,19.0180052 43.973625,20.3886366 C43.9936875,20.408768 43.6119375,22.0819356 43.6119375,22.0819356 C43.591875,23.8555722 43.45125,27.1411366 43.45125,27.1411366 C43.4311875,30.164616 42.909,33.1679639 43.4311875,36.1715 C43.65225,37.3808918 43.19025,38.5498325 43.1499375,39.7594124 C43.1098125,41.0895928 43.2705,42.3998299 43.0696875,43.7301985 C43.08975,43.8109124 43.0696875,43.8914381 42.9691875,43.931701 C40.21725,44.4558711 37.4248125,44.5567165 34.6126875,44.3954768 C33.9095625,44.3550258 33.0860625,44.2946314 32.403,44.5567165 C32.1418125,44.6775052 31.7803125,44.838933 31.4589375,44.8186134 C31.057125,44.7783505 30.8563125,44.4558711 30.4745625,44.3952887 C29.9925,44.2946314 29.5305,44.1939742 29.0683125,44.1535232 C27.8229375,43.9922835 26.63775,43.9115696 25.4728125,44.4156082 C24.829875,44.6978247 24.147,44.5768479 23.5040625,44.3147629 C22.7409375,43.9922835 22.1581875,43.6092216 21.314625,44.0325464 C20.973,44.1937861 20.6716875,44.3751572 20.290125,44.4558711 C19.96875,44.5363969 19.6875,44.4558711 19.40625,44.3348943 C18.7635,44.0931289 18.2611875,44.0124149 17.578125,44.1333918 C17.65875,44.234049 17.598375,44.4156082 17.45775,44.4156082 C13.3798125,44.1937861 9.282,44.6775052 5.20425,44.7380876 C5.00325,44.7783505 4.862625,45.0001727 4.7420625,45.0001727 L4.6216875,45.0001727 C4.5211875,45.0001727 4.501125,44.6573737 4.5211875,44.5969794 C3.97875,43.9922835 4.119375,41.9968247 4.1394375,41.4122603 C4.300125,37.6025258 3.8180625,33.7726598 3.7175625,29.9832448 C3.6774375,28.0886314 3.6774375,26.1736985 3.97875,24.2990284 C4.3404375,22.1824046 4.3404375,20.1265515 4.300125,18.010116 C4.1998125,13.7973763 4.6216875,9.60476804 4.501125,5.39202835 C4.501125,5.31131443 4.581375,5.29118299 4.6216875,5.31131443 L4.6618125,5.29118299 C5.7868125,5.19033763 7.012125,4.88798969 8.116875,5.19033763 C8.13840523,5.19179486 8.15554776,5.2089963 8.157,5.23060052 L8.3176875,5.2509201 L9.56325,5.2509201 C9.603375,5.2509201 9.6635625,5.27105155 9.6635625,5.29118299 C11.87325,5.31131443 14.0829375,5.1299433 16.292625,5.02909794 C17.0559375,5.00896649 17.8595625,5.02909794 18.622875,4.78733247 C19.0044375,4.66635567 19.466625,4.46466495 19.86825,4.50511598 C20.8726875,4.58564175 21.897,4.88798969 22.881375,5.10981186 C23.5845,5.2509201 24.0665625,4.04152835 24.68925,4.46466495 C25.6335,5.06936082 26.7181875,4.8477268 27.802875,4.86785825 C28.3854375,4.88798969 28.927875,4.76701289 29.5104375,4.76701289 C29.8318125,4.76701289 30.093,4.8477268 30.37425,4.90812113 C30.6555,4.86785825 30.8964375,4.88798969 31.218,5.00896649 L36.360375,4.8477268 C37.384875,4.86785825 38.5096875,4.94857216 39.4940625,4.56551031 C39.75525,4.46466495 39.8956875,4.3235567 39.976125,4.16231701 C39.936,4.08179124 39.8956875,4.00107732 39.8555625,3.9004201 C39.7753125,3.75931186 39.694875,3.57775258 39.594375,3.47709536 C38.489625,3.11416495 37.2241875,3.21501031 36.0590625,3.15461598 C34.4720625,3.07390206 32.925375,3.29572423 31.338375,3.41651289 C29.872125,3.53748969 28.3453125,3.63833505 26.878875,3.51735825 C26.0150625,3.43664433 24.3879375,3.05377062 23.6446875,3.65846649 C23.5644375,3.69872938 23.5040625,3.69872938 23.4238125,3.65846649 C22.0175625,2.50946907 20.1695625,4.24303093 18.5625,3.75931186 C17.598375,3.47709536 16.6944375,3.27540464 15.6699375,3.39638144 C14.6855625,3.4972268 13.7214375,3.63833505 12.717,3.63833505 C10.527375,3.61820361 8.358,3.75931186 6.168375,3.67859794 C5.6863125,3.65846649 5.2243125,3.65846649 4.782375,3.59807216 C4.400625,3.55762113 3.8985,3.35611856 3.51675,3.51735825 C2.914125,3.73918041 2.7935625,3.94068299 2.8539375,4.12205412 C3.014625,4.24303093 2.452125,5.00896649 2.452125,5.39202835 L2.412,6.39972938 C2.3919375,7.89133763 2.2914375,9.26196907 1.95,10.7133144 C1.7893125,11.47925 1.4075625,12.5678531 1.6888125,13.3337887 C1.8495,13.8376392 2.23125,14.1804381 2.452125,14.6237062 C2.833875,15.4502242 2.8539375,16.4581134 2.813625,17.3450258 L2.5726875,26.0124588 C2.4721875,28.8948299 2.2914375,31.7973325 2.412,34.7000232 C2.5123125,37.3808918 2.9341875,40.1221546 2.5726875,42.7827036 C2.452125,43.6698041 1.3875,45.2419381 2.412,45.8667655 C2.9945625,46.2095644 3.677625,46.2900902 4.3404375,46.3506727 C5.9675625,46.4513299 7.5946875,46.2699588 9.2416875,46.0885876 C9.8445,46.0078737 10.447125,45.8870851 11.04975,45.8870851 C11.51175,45.8667655 11.933625,45.9273479 12.375375,46.0883995 C12.757125,46.2295077 13.3396875,46.4917809 13.781625,46.4917809 C13.8016875,46.5119124 14.5048125,46.4714613 14.5449375,46.2699588 C15.1475625,46.0078737 15.6699375,45.8063711 16.4330625,45.9474794 C17.1765,46.0885876 17.8393125,46.189433 18.622875,46.0483247 C19.0245,45.9676108 19.627125,45.9273479 20.029125,46.0280052 L20.189625,46.148982 C20.3503125,46.0684562 20.089125,46.3506727 19.9284375,46.411067 C19.0246875,46.7738093 19.3059375,47.9429381 19.2054375,48.7290052 C19.2054375,48.8099072 19.1049375,48.8298505 19.0648125,48.8298505 C18.703125,48.8298505 18.201,48.8298505 18,48.4469768 C17.578125,47.6607216 16.5538125,47.1166082 16.5538125,48.7694562 C16.5538125,48.8701134 16.473375,48.9105644 16.4131875,48.9105644 C16.33275,48.9105644 16.2725625,48.8701134 16.2725625,48.7694562 C16.2725625,48.6686108 15.2079375,48.1041778 15.087375,48.0437835 C14.565,47.761567 13.962375,47.4189562 13.339875,47.6405902 C12.958125,47.761567 12.63675,47.9833892 12.2750625,48.1446289 C11.6323125,48.9306959 10.9494375,49.7773454 10.0051875,49.2734948 C9.8041875,49.1726495 9.0208125,48.4870515 8.860125,48.6281598 C8.63925,48.8701134 8.398125,49.112067 8.0968125,49.2330438 C7.233,49.5756546 6.3290625,49.5152603 5.4050625,49.4951289 C5.3649375,49.4951289 5.2644375,49.4546778 5.2644375,49.3741521 C5.2243125,49.0112216 5.0233125,48.2857371 4.5211875,48.7291933 C4.400625,48.8298505 4.300125,48.9305077 4.17975,49.0516727 C4.039125,49.1726495 3.858375,49.3338892 3.6774375,49.4144149 C3.0748125,49.6563686 1.2268125,49.3338892 0.9856875,48.9105644 C0.784875,48.5880851 0.7245,48.2654175 0.64425,47.9026753 C0.503625,47.0157629 0.604125,46.0483247 0.5638125,45.1412809 C0.4835625,42.8634175 0.322875,40.6260052 0.1419375,38.3483299 C0.041625,37.1993325 -0.0586875,36.0100722 0.041625,34.8411314 C0.08175,34.0953273 0.121875,33.0673067 0.503625,32.3820851 C0.825,31.8377835 0.604125,31.3943273 0.18225,30.991134 C0.08175,30.8701572 0.041625,30.6485232 0.041625,30.5074149 C-0.0388125,29.6607655 0.121875,28.7738531 0.1621875,27.9272036 C0.2023125,27.3025644 0.3028125,26.677549 0.3028125,26.0527216 C0.3028125,25.5690026 0.2023125,25.1052268 0.1621875,24.6416392 C0.142125,24.3998737 0.121875,24.1581082 0.2625,23.9360979 C0.54375,23.5330928 0.503625,23.3114588 0.3429375,22.847683 C0.0215625,21.9607706 0.3429375,20.8924871 0.3830625,19.9653119 C0.4635,18.8768969 0.503625,17.8086134 0.3830625,16.6998789 C0.2625,15.4904871 0.0215625,14.3215464 0.1018125,13.0918351 C0.18225,11.9832887 0.2424375,10.9752113 0.3028125,9.88698454 C0.403125,7.91146907 0.403125,5.91601031 0.3429375,3.94068299 L0.3429375,4.40427062 C0.3429375,4.40427062 0.18225,1.88464175 1.2268125,1.27994588 C2.8336875,0.393033505 4.782375,0.534141753 6.529875,0.453615979 C8.7999375,0.352770619 11.089875,0.574404639 13.35975,0.574404639 C14.6855625,0.574404639 15.9913125,0.554273196 17.277,0.251925258 C18.173016,0.0508065432 19.0916095,-0.0304871465 20.008875,0.0101597938 C21.133875,0.090685567 22.2185625,0.372902062 23.3233125,0.473747423 C24.42825,0.574404639 25.5129375,0.514010309 26.6176875,0.453615979 C29.0083125,0.292188144 31.4188125,0.352770619 33.80925,0.453615979 L37.5455625,0.61485567 C38.128125,0.634987113 38.7909375,0.776095361 39.3534375,0.634987113 L40.4180625,0.272056701 C41.2014375,0.0504226804 41.7436875,0.251925258 42.5071875,0.433296392 L45.3195,1.09857474 C45.640875,1.01786082 45.9421875,0.997729381 46.1833125,1.23968299 C46.7055,1.72340206 46.203375,2.32809794 46.5849375,2.87239948 C47.0469375,3.51735825 47.4688125,3.94068299 47.5693125,4.76701289 C47.6698125,5.65392526 47.7099375,6.62155155 47.4286875,7.48833247 C47.227875,8.07289691 46.9666875,8.69772423 47.2078125,9.32255155 C47.3484375,9.70542526 47.6094375,10.0683557 47.7099375,10.471549 C47.91075,11.3381418 47.91075,12.2049227 47.8505625,13.0918351 C47.8104375,14.0997242 47.7500625,15.1275567 47.6295,16.1153144 C47.54925,16.7604613 47.28825,17.3852887 47.268,18.010116 C47.2479375,18.5342861 47.408625,18.9775541 47.509125,19.4814046 C47.850375,21.1344407 46.4041875,22.1825928 46.143,23.6943325 C46.002375,24.5208505 46.9265625,24.1579201 47.34825,24.6416392 C47.6094375,24.9643067 47.4688125,25.4882887 47.44875,25.8308995 C47.34825,26.7178119 47.6094375,27.5845928 47.5693125,28.4715052 C47.5291875,29.5800515 47.1875625,30.4870954 47.44875,31.5958299 C47.589375,32.2206572 47.7099375,32.8454845 47.5693125,33.4703119 C47.4286875,34.0953273 46.7055,35.6674613 47.6698125,35.9496778 C47.7099375,35.9496778 47.7500625,35.9899407 47.7500625,36.0505232 C47.7500625,36.3327397 47.7099375,36.5340541 47.589375,36.7963273 C47.1675,37.7637655 47.8305,37.5620747 47.9510625,38.1870902 C48.0714375,38.7716546 47.73,38.9731572 47.6295,39.5172706 C47.488875,40.3842397 47.9510625,41.0493299 47.91075,41.8959794 C47.8906875,42.6820464 47.44875,43.1255026 47.589375,43.8511753 C47.6295,43.8511753 47.689875,43.8914381 47.689875,43.9520206 C47.770125,44.3348943 47.8104375,44.7783505 47.6698125,45.1614124 C47.4688125,45.7055258 47.2479375,45.8669536 47.870625,46.189433 C48.0313125,46.0684562 48.0313125,46.2095644 47.9308125,46.2699588 L47.9308125,46.2699588 Z M37.425,19.5218557 C37.04325,17.1634665 36.822375,14.7044201 36.039,12.4468763 C35.697375,11.4993814 35.5366875,10.4713608 34.4319375,10.2899897 C32.9855625,10.0482242 33.467625,11.257616 33.668625,12.4066134 C33.949875,14.18025 34.07025,15.9945258 34.53225,17.7480309 C34.8538125,18.9574227 35.436375,20.3886366 33.829125,19.4614613 C31.1375625,17.8287448 30.213375,14.2609639 29.1286875,11.6002268 C28.646625,10.3908351 27.2405625,7.50846392 26.27625,6.78279124 C25.81425,6.44018041 23.544375,5.93614175 23.1024375,6.23848969 C22.1581875,6.8836366 25.071,11.4188557 25.4728125,12.2252423 C26.3566875,14.0391418 27.30075,15.8330979 28.4458125,17.4658144 C29.2693125,18.6148119 30.555,19.6830954 28.7270625,20.3685052 C26.83875,21.0941778 25.9145625,20.0257062 24.6290625,19.0381366 C23.6045625,18.272201 22.2988125,18.1512242 21.0133125,18.010116 C17.4778125,17.5867912 14.1230625,17.9899845 11.2906875,20.3483737 C9.92475,21.497183 9.0609375,23.0695052 8.3379375,24.6820902 C8.1369375,25.0850954 6.9718125,28.6528763 7.1325,28.6730077 C6.4095,28.5522191 6.85125,26.8589201 5.92725,27.8466778 C5.10375,28.7134588 6.168375,31.212768 6.529875,32.079549 C7.3535625,34.0146134 8.217375,35.9094149 8.860125,37.9251933 C9.502875,39.9407835 9.6435,39.9003325 11.4916875,40.0617603 C13.842,40.2833943 16.152,39.5577216 18.4621875,39.2755052 C18.4621875,39.2755052 14.3641875,36.7156134 22.4596875,39.5174588 C24.2675625,40.1422861 26.1759375,39.9810464 28.0640625,40.0414407 C29.4099375,39.7189613 29.4500625,37.4010232 30.1531875,36.3124201 C30.414375,35.9094149 31.720125,33.8533737 32.1219375,33.692134 C32.7043125,33.4703119 33.528,34.0750077 34.1105625,34.1557216 C37.4851875,34.6798918 38.5299375,31.8979897 37.9875,29.1770464 C37.5255,26.7985258 37.7865,24.1377887 38.128125,22.3035696 C38.26875,21.6181598 37.5455625,20.146683 37.425,19.5218557 Z M22.339125,48.4671082 C21.9774375,48.1243093 21.4351875,48.0437835 21.0735,47.6810412 C20.8726875,47.4592191 20.8123125,47.2577165 20.852625,47.0157629 C20.852625,47.0157629 20.832375,47.0157629 20.832375,46.9956314 C20.571375,46.5119124 21.174,46.1087191 21.595875,46.2699588 C21.81675,46.3708041 22.138125,46.5119124 22.1784375,46.7738093 C22.1985,47.1166082 21.9774375,47.3583737 21.91725,47.6607216 C22.1581875,47.8018299 22.3993125,48.1446289 22.519875,48.3058686 C22.600125,48.4469768 22.4394375,48.5677655 22.339125,48.4671082 Z"/>
  </g>
</svg>
