<svg xmlns="http://www.w3.org/2000/svg" width="95" height="129" viewBox="0 0 95 129">
  <g fill="none" transform="translate(23 19)">
    <path fill="#E76F00" d="M46.8359452,70.8949262 L46.4941199,70.8949262 L46.4941199,70.7056273 L47.4147158,70.7056273 L47.4147158,70.8949262 L47.0749041,70.8949262 L47.0749041,71.839428 L46.8359452,71.839428 L46.8359452,70.8949262 L46.8359452,70.8949262 Z M48.6721027,70.9442435 L48.6667329,70.9442435 L48.3277603,71.8397601 L48.1727055,71.8397601 L47.8360822,70.9442435 L47.8320548,70.9442435 L47.8320548,71.8397601 L47.6066884,71.8397601 L47.6066884,70.7059594 L47.9382774,70.7059594 L48.2504007,71.5088192 L48.5615171,70.7059594 L48.8919315,70.7059594 L48.8919315,71.8397601 L48.6719349,71.8397601 L48.6721027,70.9442435 L48.6721027,70.9442435 Z"/>
    <path fill="#5382A1" d="M16.2238664,47.7106273 C16.2238664,47.7106273 13.8446815,49.0797232 17.9170514,49.5430074 C22.850613,50.0999446 25.3720993,50.0200738 30.8089178,49.001845 C30.8089178,49.001845 32.2383082,49.8887269 34.2345548,50.6568819 C22.0466438,55.825738 6.65091096,50.3574908 16.2238664,47.7106273 M14.7345685,40.9656089 C14.7345685,40.9656089 12.0660822,42.920203 16.1414726,43.3373247 C21.4116575,43.8753321 25.573637,43.9193358 32.7754623,42.5470849 C32.7754623,42.5470849 33.7717397,43.5463838 35.3380616,44.0928598 C20.6019829,48.3567343 4.18882877,44.4291144 14.7345685,40.9656089"/>
    <path fill="#E76F00" d="M27.2898116,29.5238192 C30.2929075,32.9451476 26.5009452,36.0240775 26.5009452,36.0240775 C26.5009452,36.0240775 34.1259829,32.1288376 30.624161,27.2510701 C27.353411,22.7020849 24.8451815,20.4421218 38.4237192,12.6494834 C38.423887,12.6493173 17.1098938,17.9168081 27.2898116,29.5238192"/>
    <path fill="#5382A1" d="M43.4093014,52.6996494 C43.4093014,52.6996494 45.1699452,54.1353321 41.4702774,55.2457196 C34.4352534,57.3545756 12.1897568,57.9913838 6.01005137,55.3299077 C3.78860616,54.3734502 7.95444521,53.0463653 9.26485959,52.7678967 C10.6314897,52.4746494 11.4124692,52.5292804 11.4124692,52.5292804 C8.94199658,50.8071587 -4.55565753,55.9105904 4.55632877,57.3723432 C29.4060411,61.3600738 49.8551507,55.5766605 43.4093014,52.6996494 M17.3679829,33.9769926 C17.3679829,33.9769926 6.05250685,36.636476 13.3608904,37.6022325 C16.4467158,38.0110517 22.5982295,37.9185609 28.3280411,37.4434871 C33.0108973,37.0526015 37.7132192,36.221679 37.7132192,36.221679 C37.7132192,36.221679 36.0619863,36.9214207 34.8673596,37.7284317 C23.3766918,40.7190221 1.17885274,39.3276753 7.56932534,36.2688376 C12.9737568,33.6837454 17.3679829,33.9769926 17.3679829,33.9769926 M37.6665685,45.2044096 C49.347363,39.198155 43.9467911,33.4260332 40.1769795,34.2038192 C39.2530274,34.3941144 38.8410582,34.5590037 38.8410582,34.5590037 C38.8410582,34.5590037 39.184226,34.0273063 39.8390137,33.7971587 C47.2965788,31.2027675 53.0319281,41.4489852 37.431637,45.5072878 C37.431637,45.5072878 37.6127021,45.3475461 37.6665685,45.2044096"/>
    <path fill="#E76F00" d="M30.624161,0.0662546125 C30.624161,0.0662546125 37.0931678,6.46953875 24.488589,16.3164022 C14.3809966,24.2149815 22.1837432,28.7186347 24.4843938,33.8644096 C18.5845925,28.5967528 14.2548048,23.9599262 17.1595651,19.6442435 C21.4229007,13.3092066 33.23425,10.2377491 30.624161,0.0662546125"/>
    <path fill="#5382A1" d="M18.5157911,61.4799631 C29.7278973,62.1901661 46.9453562,61.0859225 47.3529623,55.8363653 C47.3529623,55.8363653 46.5692979,57.8263284 38.0867603,59.4069742 C28.517161,61.1888745 16.7140342,60.9809779 9.71357877,59.8388745 C9.71391438,59.8385424 11.1468288,61.0123616 18.5157911,61.4799631"/>
    <path fill="#E76F00" d="M16.6782911,81.5395018 C15.6205959,82.4473063 14.5034966,82.9569188 13.5010103,82.9569188 C12.0701096,82.9569188 11.2970171,82.1078967 11.2970171,80.746107 C11.2970171,79.2730627 12.1254863,78.1960517 15.4484247,78.1960517 L16.6781233,78.1960517 L16.6782911,81.5395018 L16.6782911,81.5395018 Z M19.5968116,84.7979336 L19.5968116,74.7116236 C19.5968116,72.1348339 18.1117089,70.434797 14.5310171,70.434797 C12.4406301,70.434797 10.6095068,70.945572 9.12121575,71.5969926 L9.55080479,73.3823801 C10.7226096,72.9567897 12.2394281,72.5605904 13.7282226,72.5605904 C15.7909212,72.5605904 16.6782911,73.3823801 16.6782911,75.0814207 L16.6782911,76.3563653 L15.6487877,76.3563653 C10.6371952,76.3563653 8.37648288,78.2814022 8.37648288,81.1707011 C8.37648288,83.6644649 9.86628425,85.0818819 12.6713664,85.0818819 C14.4744658,85.0818819 15.8204555,84.3451107 17.0786815,83.2671033 L17.3070685,84.7982657 L19.5968116,84.7979336 L19.5968116,84.7979336 Z M29.3369041,84.7979336 L25.696976,84.7979336 L21.3161747,70.6901845 L24.4951336,70.6901845 L27.2132911,79.3579151 L27.8175685,81.9647601 C29.1927568,78.1957196 30.1655411,74.3718819 30.6520171,70.6901845 L33.7442192,70.6901845 C32.9155822,75.3356458 31.424774,80.4347601 29.3369041,84.7979336 L29.3369041,84.7979336 Z M43.3008973,81.5395018 C42.2411884,82.4473063 41.1222432,82.9569188 40.119589,82.9569188 C38.6912055,82.9569188 37.9160993,82.1078967 37.9160993,80.746107 C37.9160993,79.2730627 38.7462466,78.1960517 42.0690171,78.1960517 L43.3008973,78.1960517 L43.3008973,81.5395018 L43.3008973,81.5395018 Z M46.2190822,84.7979336 L46.2190822,74.7116236 C46.2190822,72.1348339 44.7304555,70.434797 41.1536233,70.434797 C39.0618938,70.434797 37.2300993,70.945572 35.7424795,71.5969926 L36.1715651,73.3823801 C37.3437055,72.9567897 38.8633767,72.5605904 40.3509966,72.5605904 C42.4121849,72.5605904 43.3008973,73.3823801 43.3008973,75.0814207 L43.3008973,76.3563653 L42.2695479,76.3563653 C37.256613,76.3563653 34.9967397,78.2814022 34.9967397,81.1707011 C34.9967397,83.6644649 36.4853664,85.0818819 39.2899452,85.0818819 C41.0942192,85.0818819 42.4397055,84.3451107 43.6999452,83.2671033 L43.9291712,84.7982657 L46.2190822,84.7979336 L46.2190822,84.7979336 Z M5.17638014,87.1935609 C4.34438699,88.3956089 3.00057877,89.3465867 1.52940411,89.8845941 L0.0884349315,88.2066421 C1.20821918,87.6380812 2.16858562,86.7198155 2.61478767,85.8646494 C3.00074658,85.1039668 3.1605,84.1235978 3.1605,81.7791144 L3.1605,65.6729336 L6.26126027,65.6729336 L6.26126027,81.5584317 C6.26109247,84.6926568 6.00786986,85.9588007 5.17638014,87.1935609 L5.17638014,87.1935609 Z"/>
  </g>
</svg>
