<svg xmlns="http://www.w3.org/2000/svg" width="95" height="129" viewBox="0 0 95 129">
  <g fill="none" fill-rule="evenodd" transform="translate(16 58.86)">
    <rect width="65" height="50" y=".14" fill="#F0DA50"/>
    <path fill="#323230" d="M9.140625,35.7412374 C9.140625,38.6619005 10.0813963,40.9857586 11.962967,42.7128815 C13.8445378,44.4400044 16.3253864,45.3035529 19.4055874,45.3035529 C22.6112265,45.3035529 25.1199499,44.4224526 26.9318328,42.6602256 C28.7437157,40.8979986 29.6496436,38.4021328 29.6496436,35.1725535 L29.6496436,14.131247 L23.33596,14.131247 L23.33596,35.1304287 C23.33596,36.6609685 22.9910106,37.8228976 22.3011013,38.6162508 C21.611192,39.4096039 20.6181557,39.8062746 19.3219625,39.8062746 C18.1093947,39.8062746 17.1372644,39.4376868 16.4055424,38.7005002 C15.6738204,37.9633136 15.2940276,36.9769026 15.2661525,35.7412374 L9.140625,35.7412374 Z M35.6079212,36.1203601 C35.7194217,38.9286899 36.8622846,41.1612787 39.0365441,42.8181933 C41.2108036,44.475108 44.0958355,45.3035529 47.6917263,45.3035529 C51.4827429,45.3035529 54.4688206,44.4259629 56.6500489,42.6707568 C58.8312772,40.9155506 59.921875,38.5214853 59.921875,35.488489 C59.921875,33.1294919 59.2319761,31.2654909 57.8521575,29.8964301 C56.472339,28.5273693 54.2702374,27.5128753 51.2457866,26.8529178 L47.6081013,26.0736101 C45.8519686,25.6804439 44.5836696,25.1889936 43.8031662,24.5992443 C43.0226627,24.009495 42.6324169,23.2372159 42.6324169,22.2823837 C42.6324169,21.0888435 43.1132555,20.1375361 44.0749473,19.4284328 C45.036639,18.7193295 46.304938,18.3647832 47.8798824,18.3647832 C49.4130141,18.3647832 50.6847975,18.7368813 51.6952707,19.4810887 C52.7057439,20.2252961 53.2806596,21.2152176 53.4200353,22.4508827 L59.3783128,22.4508827 C59.2946875,19.7689277 58.1796993,17.5819736 56.0333149,15.8899548 C53.8869305,14.1979361 51.1552095,13.3519394 47.8380699,13.3519394 C44.3536797,13.3519394 41.5592406,14.2119775 39.4546688,15.9320796 C37.3500971,17.6521816 36.297827,19.9374258 36.297827,22.7878806 C36.297827,25.0907111 36.9737886,26.9547121 38.325732,28.3799395 C39.6776755,29.8051669 41.7334349,30.8196609 44.493072,31.4234518 L48.4234446,32.2870089 C50.2632026,32.6942168 51.5872511,33.2102396 52.3956296,33.835093 C53.2040082,34.4599464 53.6081914,35.2638188 53.6081914,36.2467343 C53.6081914,37.4262328 53.089025,38.3915817 52.0506767,39.14281 C51.0123284,39.8940382 49.6708583,40.2696467 48.0262261,40.2696467 C46.2422182,40.2696467 44.7822806,39.8940382 43.6463694,39.14281 C42.5104582,38.3915817 41.8658556,37.3841085 41.7125425,36.1203601 L35.6079212,36.1203601 Z"/>
  </g>
</svg>
