<svg xmlns="http://www.w3.org/2000/svg" width="95" height="129" viewBox="0 0 95 129">
  <path fill="#788295" fill-rule="evenodd" d="M6.56078332,28.5939719 L6.56078332,28.0632977 C10.6651801,27.6678915 12.7173478,25.1914369 12.7173478,20.6338596 L12.7173478,12.4864506 C12.7173478,9.989148 13.2252074,8.25146767 14.240942,7.27335748 C15.2566766,6.29524729 17.0393676,5.80619953 19.5890687,5.80619953 L20.9882879,5.80619953 L20.9882879,0 L18.252037,0 C13.7537839,0 10.4786073,0.900055981 8.42640891,2.70019494 C6.3742105,4.50033391 5.34812669,7.36698619 5.34812669,11.3002378 L5.34812669,18.011705 C5.34812669,20.446575 4.95427633,22.1478369 4.16656381,23.1155417 C3.37885129,24.0832464 1.99001058,24.5670916 0,24.5670916 L0,32.0589619 C2.01073985,32.0589619 3.40476281,32.5324018 4.18211069,33.4792957 C4.95945858,34.4261896 5.34812669,36.1274515 5.34812669,38.5831324 L5.34812669,46.3247318 C5.34812669,50.3412268 6.37939274,53.280716 8.44195579,55.1432875 C10.5045188,57.005859 13.7745132,57.9371308 18.252037,57.9371308 L20.9882879,57.9371308 L20.9882879,52.0997152 L19.5890687,52.0997152 C17.0600969,52.0997152 15.2825881,51.6054648 14.2564889,50.6169491 C13.2303897,49.6284335 12.7173478,47.9063611 12.7173478,45.4506802 L12.7173478,36.3980035 C12.7173478,31.5698851 10.6651801,28.9685673 6.56078332,28.5939719 Z M44.2530832,28.5939719 C40.1694156,28.9685673 38.1276125,31.5698851 38.1276125,36.3980035 L38.1276125,45.4506802 C38.1276125,47.9063611 37.6145706,49.6284335 36.5884714,50.6169491 C35.5623722,51.6054648 33.7744988,52.0997152 31.2247978,52.0997152 L29.8255786,52.0997152 L29.8255786,57.9371308 L32.5929232,57.9371308 C37.0497178,57.9371308 40.3145299,57.005859 42.3874576,55.1432875 C44.4603853,53.280716 45.4968335,50.3412268 45.4968335,46.3247318 L45.4968335,38.5831324 C45.4968335,36.1274515 45.8855017,34.4261896 46.6628495,33.4792957 C47.4401974,32.5324018 48.8238559,32.0589619 50.8138665,32.0589619 L50.8138665,24.5670916 C48.8238559,24.5670916 47.4401974,24.0832464 46.6628495,23.1155417 C45.8855017,22.1478369 45.4968335,20.446575 45.4968335,18.011705 L45.4968335,11.3002378 C45.4968335,7.36698619 44.4655675,4.50033391 42.4030044,2.70019494 C40.3404414,0.900055981 37.070447,0 32.5929232,0 L29.8255786,0 L29.8255786,5.80619953 L31.2247978,5.80619953 C33.7744988,5.80619953 35.5623722,6.29524729 36.5884714,7.27335748 C37.6145706,8.25146767 38.1276125,9.989148 38.1276125,12.4864506 L38.1276125,20.6338596 C38.1276125,25.1914369 40.1694156,27.6678915 44.2530832,28.0632977 L44.2530832,28.5939719 Z" transform="translate(23 36)"/>
</svg>
