<svg xmlns="http://www.w3.org/2000/svg" width="95" height="129" viewBox="0 0 95 129">
  <path fill="#788295" fill-rule="evenodd" d="M4.654011,20.3550308 L4.654011,19.9772628 C7.56553955,19.6957872 9.02128199,17.9328873 9.02128199,14.6885102 L9.02128199,8.88865975 C9.02128199,7.11091891 9.38154148,5.87392614 10.1020713,5.17764431 C10.8226011,4.48136248 12.0871854,4.13322679 13.8958622,4.13322679 L14.8884238,4.13322679 L14.8884238,0 L12.9474145,0 C9.75649684,0 7.43319072,0.640717817 5.97742645,1.92217267 C4.52166218,3.20362753 3.79379096,5.24429526 3.79379096,8.04423708 L3.79379096,12.8218917 C3.79379096,14.555189 3.51440604,15.7662568 2.95562784,16.4551314 C2.39684963,17.1440059 1.41165021,17.4884381 0,17.4884381 L0,22.8216339 C1.42635489,22.8216339 2.41523044,23.1586589 2.9666563,23.832719 C3.51808216,24.506779 3.79379096,25.7178468 3.79379096,27.4659586 L3.79379096,32.9769277 C3.79379096,35.8361275 4.52533829,37.9286453 5.98845491,39.2545436 C7.45157153,40.580442 9.77120153,41.2433813 12.9474145,41.2433813 L14.8884238,41.2433813 L14.8884238,37.0879328 L13.8958622,37.0879328 C12.1018901,37.0879328 10.8409819,36.7360936 10.1130997,36.0324045 C9.38521759,35.3287154 9.02128199,34.1028333 9.02128199,32.3547215 L9.02128199,25.9104432 C9.02128199,22.4734776 7.56553955,20.621692 4.654011,20.3550308 Z M31.3917296,20.3550308 C28.4949057,20.621692 27.0465155,22.4734776 27.0465155,25.9104432 L27.0465155,32.3547215 C27.0465155,34.1028333 26.6825799,35.3287154 25.9546978,36.0324045 C25.2268156,36.7360936 23.9585552,37.0879328 22.1498783,37.0879328 L21.1573168,37.0879328 L21.1573168,41.2433813 L23.120383,41.2433813 C26.2818913,41.2433813 28.5978452,40.580442 30.0683141,39.2545436 C31.5387831,37.9286453 32.2740065,35.8361275 32.2740065,32.9769277 L32.2740065,27.4659586 C32.2740065,25.7178468 32.5497153,24.506779 33.1011412,23.832719 C33.6525671,23.1586589 34.6340904,22.8216339 36.0457406,22.8216339 L36.0457406,17.4884381 C34.6340904,17.4884381 33.6525671,17.1440059 33.1011412,16.4551314 C32.5497153,15.7662568 32.2740065,14.555189 32.2740065,12.8218917 L32.2740065,8.04423708 C32.2740065,5.24429526 31.5424592,3.20362753 30.0793426,1.92217267 C28.616226,0.640717817 26.296596,0 23.120383,0 L21.1573168,0 L21.1573168,4.13322679 L22.1498783,4.13322679 C23.9585552,4.13322679 25.2268156,4.48136248 25.9546978,5.17764431 C26.6825799,5.87392614 27.0465155,7.11091891 27.0465155,8.88865975 L27.0465155,14.6885102 C27.0465155,17.9328873 28.4949057,19.6957872 31.3917296,19.9772628 L31.3917296,20.3550308 Z" transform="translate(31 45)"/>
</svg>
