<svg xmlns="http://www.w3.org/2000/svg" width="95" height="129" viewBox="0 0 95 129">
  <path fill="#28497C" d="M62.1762295,10.0377358 C62.1762295,7.97735849 62.4959016,6.76226415 62.4959016,4.54339623 C62.4959016,1.10943396 61.2172131,0 58.3934426,0 L56.3155738,0 L56.3155738,2.43018868 L56.954918,2.43018868 C58.3934426,2.43018868 58.7131148,2.90566038 58.7131148,4.6490566 C58.7131148,6.28679245 58.5532787,7.9245283 58.5532787,9.82641509 C58.5532787,12.2566038 59.352459,13.2075472 60.9508197,13.5773585 L60.9508197,13.7358491 C59.352459,14.1056604 58.5532787,15.0566038 58.5532787,17.4867925 C58.5532787,19.3886792 58.7131148,20.9207547 58.7131148,22.6641509 C58.7131148,24.4603774 58.3401639,24.9358491 56.954918,24.9358491 L56.954918,24.9886792 L56.3155738,24.9886792 L56.3155738,27.5245283 L58.3934426,27.5245283 C61.2172131,27.5245283 62.4959016,26.4150943 62.4959016,22.9811321 C62.4959016,20.709434 62.1762295,19.5471698 62.1762295,17.4867925 C62.1762295,16.3773585 62.8688525,15.2150943 64.9467213,15.109434 L64.9467213,12.3622642 C62.8688525,12.309434 62.1762295,11.1471698 62.1762295,10.0377358 Z M51.4672131,13.2603774 C49.8688525,12.6264151 48.3770492,12.2566038 48.3770492,11.2 C48.3770492,10.4075472 49.0163934,9.93207547 50.1885246,9.93207547 C51.3606557,9.93207547 52.4262295,10.4075472 53.5983607,11.2528302 L55.7295082,8.45283019 C54.397541,7.4490566 52.5860656,6.39245283 50.1352459,6.39245283 C46.5122951,6.39245283 44.0614754,8.45283019 44.0614754,11.3584906 C44.0614754,13.9471698 46.352459,15.2679245 48.2704918,16.0075472 C49.9221311,16.6415094 51.5204918,17.1698113 51.5204918,18.2264151 C51.5204918,19.0188679 50.8811475,19.5471698 49.442623,19.5471698 C48.1106557,19.5471698 46.7786885,19.0188679 45.3401639,17.909434 L43.2090164,20.9735849 C44.807377,22.2943396 47.2581967,23.1924528 49.2827869,23.1924528 C53.545082,23.1924528 55.8360656,20.9735849 55.8360656,18.0679245 C55.8360656,15.1622642 53.545082,13.9471698 51.4672131,13.2603774 Z M15.0778689,19.2301887 C14.704918,19.2301887 14.2254098,18.9132075 14.2254098,17.909434 L14.2254098,2.53584906 L14.2254098,0.211320755 L14.2254098,0 L6.65983607,0 C3.78278689,0 2.50409836,1.10943396 2.50409836,4.54339623 C2.50409836,6.81509434 2.82377049,8.08301887 2.82377049,10.0377358 C2.82377049,11.1471698 2.13114754,12.309434 0.0532786885,12.4150943 L0.0532786885,15.1622642 C2.13114754,15.2150943 2.82377049,16.3773585 2.82377049,17.4867925 C2.82377049,19.4415094 2.50409836,20.6037736 2.50409836,22.8754717 C2.50409836,26.309434 3.78278689,27.4188679 6.60655738,27.4188679 L8.68442623,27.4188679 L8.68442623,24.9886792 L8.04508197,24.9886792 C6.71311475,24.9886792 6.28688525,24.4603774 6.28688525,22.7169811 C6.28688525,20.9735849 6.44672131,19.4943396 6.44672131,17.5396226 C6.44672131,15.109434 5.64754098,14.1584906 4.04918033,13.7886792 L4.04918033,13.6301887 C5.64754098,13.2603774 6.44672131,12.309434 6.44672131,9.87924528 C6.44672131,7.97735849 6.28688525,6.44528302 6.28688525,4.70188679 C6.28688525,2.95849057 6.65983607,2.48301887 8.04508197,2.48301887 L9.48360656,2.48301887 L9.48360656,17.645283 C9.48360656,20.8679245 10.602459,22.9811321 13.852459,22.9811321 C14.8647541,22.9811321 15.6639344,22.8226415 16.25,22.6113208 L15.7172131,19.1773585 C15.397541,19.2301887 15.2377049,19.2301887 15.0778689,19.2301887 Z M38.5737705,13.2603774 C36.9221311,12.6264151 35.4303279,12.2566038 35.4303279,11.2 C35.4303279,10.4075472 36.0696721,9.93207547 37.2418033,9.93207547 C38.4139344,9.93207547 39.4795082,10.4075472 40.6516393,11.2528302 L42.7827869,8.45283019 C41.4508197,7.4490566 39.6393443,6.39245283 37.1885246,6.39245283 C33.5655738,6.39245283 31.1147541,8.45283019 31.1147541,11.3584906 C31.1147541,13.9471698 33.4057377,15.2679245 35.3237705,16.0075472 C36.9754098,16.6415094 38.5737705,17.1698113 38.5737705,18.2264151 C38.5737705,19.0188679 37.9344262,19.5471698 36.4959016,19.5471698 C35.1639344,19.5471698 33.8319672,19.0188679 32.3934426,17.909434 L30.3155738,20.9735849 C31.9139344,22.2943396 34.3647541,23.1924528 36.3893443,23.1924528 C40.6516393,23.1924528 42.942623,20.9735849 42.942623,18.0679245 C42.942623,15.1622642 40.6516393,13.9471698 38.5737705,13.2603774 Z M22.8565574,6.33962264 C18.9672131,6.33962264 15.2377049,9.56226415 15.3442623,14.6339623 C15.3442623,19.8641509 18.807377,22.9283019 23.3893443,22.9283019 C25.307377,22.9283019 27.4385246,22.2415094 29.0901639,21.1320755 L27.4918033,18.3320755 C26.3196721,19.0188679 25.2008197,19.3358491 24.0286885,19.3358491 C21.897541,19.3358491 20.2459016,18.3320755 19.8196721,15.9018868 L29.4631148,15.9018868 C29.5163934,15.5320755 29.6229508,14.7924528 29.6229508,13.9471698 C29.6762295,9.66792453 27.3319672,6.33962264 22.8565574,6.33962264 Z M19.8196721,12.9962264 C20.1393443,10.8830189 21.4180328,9.87924528 22.9098361,9.87924528 C24.8278689,9.87924528 25.5737705,11.2 25.5737705,12.9962264 L19.8196721,12.9962264 Z" transform="translate(16 67)"/>
</svg>
