<svg xmlns="http://www.w3.org/2000/svg" width="95" height="129" viewBox="0 0 95 129">
  <path fill="#E42127" d="M25.327198,3.03506701 C24.8131963,1.20936598 23.5689262,0.296515464 22.5139849,0.430742268 C21.2425587,0.591814433 19.8899916,1.34359278 19.348943,2.52500515 C17.834094,5.90795361 20.9990268,15.8688814 21.4859815,17.5336186 C18.4022987,26.7696134 7.85244966,45.0269485 2.68582215,46.2620515 C2.57763423,45.0539021 3.22687081,41.5635722 10.0435822,37.2139742 C10.395302,36.8380309 10.8010067,36.3816598 10.9904446,36.0862526 C5.2286745,38.8786031 -2.23738255,43.3624278 2.25307047,46.7185309 C2.49649329,46.9064485 2.87526007,47.0676289 3.30812081,47.228701 C6.74352349,48.4905412 11.5584312,44.3558144 16.400604,34.9854845 C21.7295134,33.2403196 26.0306376,31.9246804 32.1169715,31.0118299 C38.771401,35.4956546 43.234698,36.4083969 46.264396,35.2539381 C47.1029614,34.9316856 48.4284815,33.8846082 48.8071393,32.5152784 C46.3455369,35.5223918 40.5837668,33.4282371 35.9852349,30.5553505 C40.232047,30.0988711 44.6143121,29.8305258 46.5078188,30.4211237 C48.9153272,31.1729021 48.8341862,32.3542062 48.8071393,32.5153866 C48.9964681,31.8710979 49.267047,30.8239124 48.7530453,29.9915979 C46.7241946,26.7160309 37.4188339,28.6223763 34.0375252,28.971366 C28.7085067,25.7763351 25.0295721,20.0843608 23.5418792,15.9764794 C24.9213842,10.6870773 26.4091862,6.84775773 25.327198,3.03506701 M23.0278775,14.1237165 C22.1352181,10.9823763 20.8908389,4.00171649 22.8926426,1.74638144 C26.815,3.97487113 24.3804446,9.2640567 23.0278775,14.1237165 M30.3585906,29.6961907 C25.2190101,30.6358866 21.7295134,31.9514175 16.7251678,33.9113454 C18.2129698,31.038567 21.0261829,23.7088093 22.37875,18.8759948 C24.2722567,22.6348866 26.5714681,26.313134 30.3585906,29.6961907" transform="translate(25 41)"/>
</svg>
