<svg xmlns="http://www.w3.org/2000/svg" width="95" height="129" viewBox="0 0 95 129">
  <g fill="none" fill-rule="evenodd" transform="translate(16 48)">
    <ellipse cx="32.5" cy="16.409" fill="#808FCF" fill-rule="nonzero" rx="32.5" ry="16.409"/>
    <path fill="#333C60" d="M9.12666016 26.1246716L12.688457 8.63614925 20.9244141 8.63614925C24.485957 8.85212687 26.2668555 10.579209 26.2668555 13.6021567 26.2668555 18.7838955 22.0375391 21.806597 18.2530664 21.5906194L14.2466797 21.5906194 13.3562305 26.1246716 9.12666016 26.1246716zM15.136875 18.3521866L15.1371289 18.3521866 17.8082227 18.3521866C19.811543 18.136209 21.5924414 17.4885224 21.8148633 13.8178881 21.8148633 12.5225149 20.7019922 11.8748284 19.1437695 11.8748284L16.25 11.8748284 15.136875 18.3521866zM25.439375 21.5906194L29.000918 4.10234328 33.2304883 4.10234328 32.3400391 8.63614925 36.3466797 8.63614925C39.9084766 8.85212687 41.2440234 10.579209 40.7989258 12.7384925L39.2407031 21.5906194 34.7887109 21.5906194 36.3469336 13.6021567C36.5693555 12.5225149 36.5693555 11.8748284 35.0113867 11.8748284L31.6722656 11.8748284 29.6689453 21.5906194 25.439375 21.5906194 25.439375 21.5906194zM38.9555664 26.1246716L42.5171094 8.63614925 50.7533203 8.63614925C54.3151172 8.85212687 56.0960156 10.579209 56.0960156 13.6021567 56.0960156 18.7838955 51.8664453 21.806597 48.0822266 21.5906194L44.075332 21.5906194 43.1848828 26.1246716 38.9555664 26.1246716 38.9555664 26.1246716zM44.9655273 18.3521866L44.9657813 18.3521866 47.6371289 18.3521866C49.6404492 18.136209 51.4213477 17.4885224 51.6437695 13.8178881 51.6437695 12.5225149 50.5308984 11.8748284 48.9726758 11.8748284L46.0786523 11.8748284 44.9655273 18.3521866z"/>
  </g>
</svg>
