<svg xmlns="http://www.w3.org/2000/svg" width="95" height="129" viewBox="0 0 95 129">
  <defs>
    <linearGradient id="python-a" x1="12.959%" x2="79.639%" y1="12.208%" y2="78.076%">
      <stop offset="0%" stop-color="#387EB8"/>
      <stop offset="100%" stop-color="#366994"/>
    </linearGradient>
    <linearGradient id="python-b" x1="19.128%" x2="90.742%" y1="20.71%" y2="88.258%">
      <stop offset="0%" stop-color="#FFE052"/>
      <stop offset="100%" stop-color="#FFC331"/>
    </linearGradient>
  </defs>
  <g fill="none" transform="translate(16 36)">
    <path fill="url(#python-a)" d="M32.2247656,0.0183529412 C15.7635156,0.0183529412 16.7913281,7.18492157 16.7913281,7.18492157 L16.8096094,14.6097059 L32.5182813,14.6097059 L32.5182813,16.8388235 L10.5703711,16.8388235 C10.5703711,16.8388235 0.0368164063,15.6395098 0.0368164063,32.3139216 C0.0368164063,48.9888431 9.23076172,48.3974706 9.23076172,48.3974706 L14.7176758,48.3974706 L14.7176758,40.6596667 C14.7176758,40.6596667 14.421875,31.4296667 23.7648633,31.4296667 L39.3450586,31.4296667 C39.3450586,31.4296667 48.0984766,31.5716471 48.0984766,22.9365882 L48.0984766,8.65901961 C48.0984766,8.65901961 49.4279297,0.0183529412 32.2247656,0.0183529412 Z M23.5630078,5.01137255 C24.31271,5.01069541 25.0319001,5.30938151 25.5620198,5.8415801 C26.0921395,6.3737787 26.3896589,7.09578921 26.3889844,7.84843137 C26.3896589,8.60107354 26.0921395,9.32308405 25.5620198,9.85528264 C25.0319001,10.3874812 24.31271,10.6861673 23.5630078,10.6854902 C22.8133057,10.6861673 22.0941155,10.3874812 21.5639958,9.85528264 C21.0338761,9.32308405 20.7363568,8.60107354 20.7370313,7.84843137 C20.7363568,7.09578921 21.0338761,6.3737787 21.5639958,5.8415801 C22.0941155,5.30938151 22.8133057,5.01069541 23.5630078,5.01137255 L23.5630078,5.01137255 Z"/>
    <path fill="url(#python-b)" d="M32.692207,64.7772157 C49.153457,64.7772157 48.1256445,57.6106471 48.1256445,57.6106471 L48.1073633,50.1861176 L32.3984375,50.1861176 L32.3984375,47.957 L54.3463477,47.957 C54.3463477,47.957 64.8799023,49.1563137 64.8799023,32.4813922 C64.8799023,15.8067255 55.685957,16.398098 55.685957,16.398098 L50.199043,16.398098 L50.199043,24.1356471 C50.199043,24.1356471 50.4948438,33.3656471 41.1518555,33.3656471 L25.5716602,33.3656471 C25.5716602,33.3656471 16.8182422,33.2236667 16.8182422,41.8589804 L16.8182422,56.1368039 C16.8182422,56.1368039 15.489043,64.7772157 32.6919531,64.7772157 L32.692207,64.7772157 Z M41.3539648,59.7847059 C40.6042627,59.785383 39.8850725,59.4866969 39.3549528,58.9544983 C38.8248331,58.4222997 38.5273138,57.7002892 38.5279883,56.9476471 C38.5272463,56.1949607 38.8247359,55.4728847 39.3548629,54.9406309 C39.8849899,54.4083772 40.6042186,54.1096561 41.3539648,54.1103333 C42.103667,54.1096562 42.8228572,54.4083423 43.3529769,54.9405409 C43.8830965,55.4727395 44.1806159,56.19475 44.1799414,56.9473922 C44.1806159,57.7000343 43.8830965,58.4220448 43.3529769,58.9542434 C42.8228572,59.486442 42.103667,59.7851281 41.3539648,59.784451 L41.3539648,59.7847059 Z"/>
  </g>
</svg>
