<svg xmlns="http://www.w3.org/2000/svg" width="95" height="129" viewBox="0 0 95 129">
  <path fill="#CD6799" d="M55.9307832,27.0364078 C53.6693989,27.0478155 51.7040073,27.5725728 50.0582878,28.348301 C49.4544627,27.1961165 48.8506375,26.1694175 48.7440801,25.4165049 C48.6256831,24.5381068 48.4836066,24.0019417 48.6256831,22.9524272 C48.7677596,21.9029126 49.4071038,20.4084951 49.3952641,20.2944175 C49.3834244,20.1803398 49.2531876,19.6441748 47.9508197,19.632767 C46.6484517,19.6213592 45.5236794,19.8723301 45.3934426,20.2031553 C45.2632058,20.5339806 45.0145719,21.2868932 44.848816,22.0626214 C44.6238616,23.2033981 42.2440801,27.2759709 40.8825137,29.4092233 C40.4444444,28.5764563 40.0655738,27.8463592 39.9826958,27.2645631 C39.8642987,26.386165 39.7222222,25.85 39.8642987,24.8004854 C40.0063752,23.7509709 40.6457195,22.2565534 40.6338798,22.1424757 C40.6220401,22.0283981 40.4918033,21.492233 39.1894353,21.4808252 C37.8870674,21.4694175 36.7622951,21.7203883 36.6320583,22.0512136 C36.5018215,22.3820388 36.359745,23.157767 36.0874317,23.9106796 C35.8151184,24.6635922 32.6539162,31.4626214 31.8251366,33.2194175 C31.3989071,34.1206311 31.0318761,34.8393204 30.7714026,35.3298544 L30.7714026,35.3298544 C30.7714026,35.3298544 30.7595628,35.3640777 30.7240437,35.4211165 C30.4990893,35.8432039 30.3688525,36.0713592 30.3688525,36.0713592 C30.3688525,36.0713592 30.3688525,36.0713592 30.3688525,36.082767 C30.1912568,36.3907767 30.0018215,36.6759709 29.9071038,36.6759709 C29.8360656,36.6759709 29.7058288,35.8546117 29.9307832,34.7366505 C30.4043716,32.3752427 31.5291439,28.7019417 31.5173042,28.5764563 C31.5173042,28.5080097 31.7304189,27.8691748 30.7832423,27.5383495 C29.859745,27.2075243 29.5282332,27.7550971 29.4453552,27.7550971 C29.3624772,27.7550971 29.3032787,27.9490291 29.3032787,27.9490291 C29.3032787,27.9490291 30.3333333,23.8194175 27.3378871,23.8194175 C25.4672131,23.8194175 22.8861566,25.7929612 21.6074681,27.5725728 C20.8023679,27.9946602 19.0856102,28.8958738 17.2504554,29.865534 C16.5519126,30.2419903 15.8296903,30.6184466 15.154827,30.9720874 C15.1074681,30.9264563 15.0601093,30.8694175 15.0127505,30.8237864 C11.3897996,27.0934466 4.68852459,24.4582524 4.9726776,19.4502427 C5.07923497,17.625 5.73041894,12.8337379 17.8424408,7.0157767 C27.8114754,2.2815534 35.7440801,3.5934466 37.1174863,6.50242718 C39.082878,10.6548544 32.867031,18.3665049 22.5664845,19.484466 C18.6357013,19.9065534 16.575592,18.4463592 16.0546448,17.8987864 C15.5100182,17.3283981 15.4271403,17.2941748 15.2258652,17.4082524 C14.8943534,17.5793689 15.1074681,18.0927184 15.2258652,18.3893204 C15.5336976,19.1650485 16.8005464,20.5339806 18.9435337,21.2070388 C20.8378871,21.8002427 25.4435337,22.131068 31.0200364,20.0548544 C37.2595628,17.7276699 42.1375228,11.259466 40.704918,5.8407767 C39.2723133,0.34223301 29.8005464,-1.47160194 20.8378871,1.59708738 C15.5100182,3.4223301 9.73224044,6.29708738 5.57650273,10.038835 C0.639344262,14.4878641 -0.142076503,18.3550971 0.177595628,19.975 C1.32604736,25.7245146 9.55464481,29.4662621 12.8460838,32.2383495 C12.6803279,32.3296117 12.5264117,32.409466 12.3961749,32.4779126 C10.7504554,33.2650485 4.47540984,36.425 2.91256831,39.7674757 C1.13661202,43.5548544 3.19672131,46.2699029 4.5582878,46.6349515 C8.78506375,47.7643204 13.1302368,45.7337379 15.4626594,42.3798544 C17.795082,39.0259709 17.510929,34.6682039 16.4335155,32.6718447 C16.4216758,32.6490291 16.4098361,32.6262136 16.3861566,32.6033981 C16.8123862,32.363835 17.2504554,32.1128641 17.6766849,31.873301 C18.5173042,31.3941748 19.3460838,30.9492718 20.0564663,30.5842233 C19.6539162,31.6451456 19.3579235,32.9114078 19.215847,34.7366505 C19.0382514,36.8813107 19.9499089,39.6648058 21.1457195,40.7599515 C21.6785064,41.2390777 22.3060109,41.2504854 22.708561,41.2504854 C24.1056466,41.2504854 24.7331512,40.1325243 25.431694,38.8092233 C26.284153,37.1893204 27.0537341,35.3070388 27.0537341,35.3070388 C27.0537341,35.3070388 26.0947177,40.3949029 28.6994536,40.3949029 C29.6466302,40.3949029 30.6056466,39.2084951 31.0318761,38.6038835 L31.0318761,38.6152913 C31.0318761,38.6152913 31.0555556,38.581068 31.1029144,38.5012136 C31.1976321,38.3529126 31.2568306,38.2616505 31.2568306,38.2616505 L31.2568306,38.238835 C31.6357013,37.6 32.4881603,36.1512136 33.7550091,33.7441748 C35.3888889,30.6412621 36.9635701,26.7626214 36.9635701,26.7626214 C36.9635701,26.7626214 37.1056466,27.709466 37.5910747,29.2837379 C37.8752277,30.207767 38.4672131,31.2230583 38.9408015,32.2041262 C38.5619308,32.7174757 38.3251366,33.0026699 38.3251366,33.0026699 C38.3251366,33.0026699 38.3251366,33.0026699 38.3369763,33.0140777 C38.0291439,33.4019417 37.6976321,33.8240291 37.3306011,34.2347087 C36.0400729,35.7177184 34.5009107,37.4174757 34.287796,37.9080097 C34.0391621,38.4898058 34.0983607,38.9118932 34.571949,39.2541262 C34.9153005,39.5050971 35.5309654,39.5393204 36.1584699,39.5050971 C37.3187614,39.4252427 38.1357013,39.1514563 38.5382514,38.9803398 C39.1657559,38.7635922 39.8998179,38.432767 40.5865209,37.942233 C41.8533698,37.0410194 42.6229508,35.7519417 42.5519126,34.0521845 C42.5163934,33.1167476 42.1967213,32.1813107 41.8060109,31.3029126 C41.924408,31.1432039 42.0309654,30.9834951 42.1493625,30.8237864 C44.1502732,28.006068 45.701275,24.9145631 45.701275,24.9145631 C45.701275,24.9145631 45.8433515,25.8614078 46.3287796,27.4356796 C46.5655738,28.2342233 47.0510018,29.1012136 47.4772313,29.9453883 C45.5947177,31.4169903 44.4344262,33.1281553 44.0200364,34.2461165 C43.2741348,36.3223301 43.8542805,37.257767 44.9553734,37.4745146 C45.4526412,37.5771845 46.1630237,37.3490291 46.6839709,37.1322816 C47.3469945,36.9269417 48.1284153,36.573301 48.8743169,36.0485437 C50.1411658,35.1473301 51.3606557,33.8924757 51.2896175,32.1927184 C51.2540984,31.4169903 51.0409836,30.6526699 50.7449909,29.911165 C52.3433515,29.2723301 54.4034608,28.9186893 57.0318761,29.2152913 C62.6675774,29.8541262 63.78051,33.242233 63.5673953,34.6682039 C63.3542805,36.0941748 62.1703097,36.8699029 61.7795993,37.109466 C61.3888889,37.3490291 61.2586521,37.4288835 61.2941712,37.6 C61.3415301,37.8509709 61.5309654,37.8395631 61.8624772,37.793932 C62.3242259,37.7140777 64.8224044,36.6417476 64.9289617,34.0179612 C65.1065574,30.6640777 61.791439,27.0021845 55.9307832,27.0364078 Z M12.4553734,41.1592233 C10.5846995,43.1213592 7.97996357,43.8628641 6.85519126,43.2354369 C5.64754098,42.5623786 6.12112933,39.6648058 8.41803279,37.5885922 C9.8151184,36.3223301 11.6147541,35.1473301 12.8105647,34.4286408 C13.082878,34.268932 13.4854281,34.0407767 13.9708561,33.7555825 C14.0537341,33.7099515 14.1010929,33.6871359 14.1010929,33.6871359 L14.1010929,33.6871359 C14.1958106,33.6300971 14.2905282,33.5730583 14.3852459,33.5160194 C15.2258652,36.4820388 14.420765,39.0944175 12.4553734,41.1592233 Z M26.0710383,32.2383495 C25.4198543,33.7669903 24.0582878,37.6798544 23.2295082,37.4631068 C22.5191257,37.2805825 22.0810565,34.3145631 23.0874317,31.382767 C23.5965392,29.911165 24.6739526,28.1543689 25.3014572,27.4699029 C26.3196721,26.3747573 27.4444444,26.0097087 27.7167577,26.4546117 C28.0601093,27.0364078 26.4735883,31.2800971 26.0710383,32.2383495 Z M37.3069217,37.4174757 C37.0346084,37.5543689 36.7741348,37.6456311 36.6557377,37.5771845 C36.5728597,37.5315534 36.7741348,37.3490291 36.7741348,37.3490291 C36.7741348,37.3490291 38.1830601,35.888835 38.7395264,35.2271845 C39.0591985,34.8393204 39.4380692,34.3830097 39.8406193,33.8696602 L39.8406193,34.0179612 C39.8406193,35.7633495 38.0883424,36.9383495 37.3069217,37.4174757 Z M45.9735883,35.5123786 C45.7723133,35.3754854 45.8078324,34.9191748 46.4826958,33.4932039 C46.7431694,32.9342233 47.3588342,31.9987864 48.4125683,31.0975728 C48.5309654,31.4626214 48.6138434,31.8162621 48.6020036,32.1470874 C48.5901639,34.3487864 46.9562842,35.1701456 45.9735883,35.5123786 Z" transform="translate(16 43)"/>
</svg>
