<svg xmlns="http://www.w3.org/2000/svg" width="95" height="129" viewBox="0 0 95 129">
  <g fill="#FF6347" transform="translate(16 48)">
    <path d="M10.1367089 31.0781893C11.8151899 29.0699588 12.0126582 26.9958848 10.7126582 23.1440329 9.88987342 20.7078189 8.52405063 18.8312757 9.5278481 17.3168724 10.5974684 15.7037037 12.8683544 17.2674897 10.9759494 19.4238683L11.3544304 19.6872428C13.6253165 19.9506173 14.7443038 16.8395062 13.0493671 15.9506173 8.57341772 13.6131687 4.65696203 18.1069959 6.38481013 23.308642 7.12531646 25.5144033 8.16202532 27.8518519 7.32278481 29.7119342 6.59873418 31.308642 5.2 32.2469136 4.26202532 32.2798354 2.30379747 32.3786008 3.60379747 27.8847737 5.85822785 26.7654321 6.0556962 26.6666667 6.33544304 26.5349794 6.0721519 26.2057613 3.29113924 25.8930041 1.66202532 27.1769547.724050633 28.9711934-2.00759494 34.1893004 5.90759494 36.1152263 10.1367089 31.0781893zM59.0101266 15.7366255C59.6518987 17.3168724 60.6227848 18.8806584 60.0468354 20.2633745 59.5696203 21.4485597 58.9443038 21.9423868 58.2531646 22.0576132 57.2822785 22.2222222 57.5455696 19.1769547 59.2075949 18.2716049 59.3556962 18.1893004 59.5696203 17.7942387 59.3721519 17.563786 57.2658228 17.4485597 56.0810127 18.4526749 55.4392405 19.7860082 53.5797468 23.6872428 59.6518987 24.7572016 62.6303797 20.9218107 63.8151899 19.3909465 63.864557 17.8765432 62.7291139 15.127572 62.0050633 13.382716 60.9025316 12.0823045 61.5936709 10.9300412 62.3341772 9.71193416 64.1113924 10.7654321 62.778481 12.3950617L63.0746835 12.5596708C64.8025316 12.6584362 65.5101266 10.3539095 64.1936709 9.77777778 60.721519 8.2962963 57.4797468 12.0329218 59.0101266 15.7366255z"/>
    <path d="M37.0253165 11.5720165C35.8240506 10.617284 32.4506329 12.2139918 31.4962025 14.5843621 30.2949367 17.5967078 28.5177215 21.9917695 26.7734177 23.9176955 24.9303797 25.9423868 24.7493671 24.3786008 24.9303797 23.2098765 25.3582278 20.4609053 28.0405063 14.090535 29.5050633 12.2962963 28.9620253 11.4897119 25.4075949 11.6049383 22.9392405 15.4403292 22.0177215 16.8888889 19.9113924 21.7119342 17.5746835 25.5144033 17.064557 26.3374486 16.4227848 25.7613169 16.9164557 23.8353909 17.4759494 21.6131687 19.121519 15.5061728 21.2443038 10.6995885 26.8063291 9.59670782 32.7139241 8.82304527 37.2392405 8.80658436 37.8481013 8.64197531 38.2594937 8.09876543 37.2392405 8.06584362 33.3392405 7.93415638 27.4810127 8.39506173 22.0012658 9.08641975 23.0544304 6.97942387 24.1898734 5.30041152 25.3417722 4.59259259 24.0911392 3.80246914 21.556962 4.11522634 20.1088608 6.25514403 19.4670886 7.20987654 18.8253165 8.36213992 18.2164557 9.61316872 14.2012658 10.2386831 10.7620253 10.9465021 9.01772152 11.6049383 7.20759494 12.2962963 7.40506329 14.4855967 8.50759494 14.0740741 10.7949367 13.218107 13.8886076 12.3292181 17.3278481 11.5390947 15.1392405 16.4773663 13.4278481 22.3045267 13.0164557 24.6748971 11.9962025 30.436214 15.5670886 30.4032922 17.3113924 28.1316872 19.2037975 25.6460905 23.1531646 16.9053498 23.7620253 15.9835391 23.943038 15.6707819 24.1898734 15.8353909 24.0582278 16.1152263 19.6481013 24.9218107 20.0265823 28.3292181 23.5974684 27.5720165 25.2101266 27.2263374 27.9911392 24.4609053 28.7151899 23.0288066 28.8632911 22.6831276 29.1759494 22.7160494 29.1101266 22.8641975 26.3126582 30.1234568 22.7582278 36 20.3721519 37.8436214 18.2 39.5061728 16.5873418 35.9012346 24.2721519 30.7325103 25.4075949 29.9588477 24.8810127 28.9053498 23.5974684 29.2674897L23.5974684 29.2674897C19.6316456 29.8930041 8.27721519 33.4979424 3.29113924 36.9547325 2.91265823 37.218107 2.56708861 37.4320988 2.5835443 37.9753086 2.6 38.2880658 3.14303797 38.1728395 3.40632911 38.0082305 9.85696203 34.1399177 15.1392405 32.6255144 21.1949367 31.3580247 21.2772152 31.3909465 21.3759494 31.4074074 21.4582278 31.3744856 21.7379747 31.308642 21.721519 31.4567901 21.5405063 31.5720165 21.1291139 31.8024691 20.7177215 32.0164609 20.6189873 32.0493827 16.5379747 33.6460905 14.0696203 37.1687243 14.9417722 38.962963 15.6822785 40.5102881 19.6810127 39.9506173 21.5734177 38.9300412 26.2139241 36.4115226 29.5873418 31.473251 31.8911392 24.6584362 33.8987342 18.617284 36.4329114 11.7695473 37.0253165 11.5720165zM63.9962025 25.5144033C56.443038 24.526749 40.1518987 25.8436214 32.9607595 27.7530864 30.821519 28.3127572 31.4139241 29.4485597 32.5 29.2345679 32.5164557 29.2345679 32.9772152 29.1193416 32.9936709 29.1193416 38.9012658 27.9670782 53.2341772 26.962963 61.5936709 28.5596708 62.5974684 28.7407407 65.6088608 25.7283951 63.9962025 25.5144033zM39.1316456 24.6255144C41.2379747 23.5720165 44.364557 17.0534979 46.421519 13.4814815 46.5696203 13.218107 46.8329114 13.4320988 46.6848101 13.6131687 41.4848101 22.5679012 43.6898734 23.6049383 45.7468354 23.473251 48.4949367 23.308642 51.0291139 19.3580247 51.5886076 18.4691358 51.8189873 18.1234568 51.9506329 18.4032922 51.8189873 18.6502058 51.6873418 19.0617284 51.2101266 19.7860082 50.7658228 20.7736626 50.1405063 22.1728395 50.7987342 22.7160494 51.3417722 22.962963 52.1974684 23.3744856 54.5341772 23.1111111 54.8962025 21.6790123 52.5594937 21.6296296 58.1544304 10.600823 58.7303797 9.92592593 57.1670886 9.02057613 54.7481013 10.0082305 53.6455696 12.18107 51.2924051 16.8395062 49.3177215 20.5925926 48.0835443 20.6584362 45.6810127 20.7901235 50.8481013 10.2716049 51.6873418 9.94238683 51.1772152 9.20164609 47.9025316 9.51440329 46.0759494 12.345679 45.4177215 13.3662551 41.4025316 20.4773663 40.4151899 21.6460905 38.6708861 23.7201646 38.5392405 21.9423868 39.0329114 19.8683128 39.1974684 19.1604938 39.4772152 18.255144 39.8392405 17.2510288 40.9911392 14.6502058 42.2253165 13.8271605 42.9822785 12.9876543 48.0670886 7.34156379 50.9797468 2.7654321 49.8278481.971193416 48.8075949-.625514403 45.4012658.0823045267 43.2126582 3.3744856 39.1810127 9.41563786 35.4620253 17.6954733 34.9848101 21.4814815 34.5240506 25.2674897 37.2721519 25.5473251 39.1316456 24.6255144zM41.2708861 13.5473251C41.4518987 13.1358025 41.5670886 13.0205761 41.8797468 12.3292181L41.8797468 12.3292181C43.6898734 8.34567901 45.9607595 4.14814815 47.5240506 2.18930041 48.4949367 1.16872428 49.8607595 2.55144033 47.3924051 6.33744856 45.9443038 8.57613169 44.2987342 10.6337449 42.5050633 12.4444444 42.5050633 12.4444444 42.5050633 12.4444444 42.5050633 12.4609053 42.0443038 12.9711934 41.6329114 13.399177 41.4518987 13.6460905 41.3202532 13.8106996 41.1721519 13.7777778 41.2708861 13.5473251z"/>
  </g>
</svg>
