<svg xmlns="http://www.w3.org/2000/svg" width="95" height="129" viewBox="0 0 95 129">
  <defs>
    <linearGradient id="swift-a" x1="50%" x2="50%" y1="0%" y2="100%">
      <stop offset="0%" stop-color="#F88A36"/>
      <stop offset="100%" stop-color="#FD2020"/>
    </linearGradient>
  </defs>
  <path fill="url(#swift-a)" d="M41.839,45.8986111 C35.3052,49.6430556 26.3214,50.0277778 17.283,46.1847222 C9.96478,43.0958333 3.89256,37.6888889 3.55271368e-15,31.5111111 C1.86844,33.0555556 4.04824,34.2916667 6.38372,35.3722222 C15.7178,39.7125 25.04992,39.4152778 31.61732,35.3833333 C31.61312,35.3791667 31.61032,35.3763889 31.60752,35.3722222 C22.26532,28.2666667 14.32452,18.9986111 8.40812,11.4305556 C7.16198,10.1947222 6.22776,8.65 5.29354,7.25986111 C12.4558,13.7473611 23.82254,21.9334722 27.86994,24.2515278 C19.30754,15.2918056 11.67754,4.17097222 11.98834,4.47930556 C25.53474,18.0723611 38.14734,25.7959722 38.14734,25.7959722 C38.56454,26.0293056 38.88654,26.22375 39.14554,26.3973611 C39.41854,25.7084722 39.65794,24.9931944 39.85954,24.2515278 C42.03934,16.37375 39.54874,7.41402778 34.09854,0.000138888889 C46.70974,7.56888889 54.18434,21.7793056 51.06934,33.67375 C50.98814,33.9945833 50.89994,34.31125 50.80474,34.6223611 C50.84114,34.6654167 50.87754,34.7098611 50.91394,34.7556944 C57.14114,42.4793056 55.42894,50.6654167 54.65054,49.1209722 C51.27234,42.5626389 45.01854,44.5681944 41.83914,45.89875 L41.839,45.8986111 Z" transform="translate(21 46)"/>
</svg>
