<svg xmlns="http://www.w3.org/2000/svg" width="95" height="129" viewBox="0 0 95 129">
  <g fill="none" fill-rule="evenodd" opacity=".9" transform="translate(16 58.86)">
    <rect width="65" height="53.207" fill="#007ACC"/>
    <path fill="#FFF" d="M22.6429825,46.7372573 L22.6429825,21.4893286 L31.5793391,21.4893286 L31.5793391,16.2240571 L7.47387845,16.2240571 L7.47387845,21.4893286 L16.410235,21.4893286 L16.410235,46.7372573 L22.6429825,46.7372573 Z M35.7482629,38.3001354 C35.8583341,41.119572 36.9865464,43.3609905 39.1329338,45.0244581 C41.2793211,46.6879257 44.1273693,47.5196471 47.6771638,47.5196471 C51.4195828,47.5196471 54.3673815,46.6385863 56.5206483,44.8764384 C58.6739151,43.1142906 59.7505324,40.7107569 59.7505324,37.6657653 C59.7505324,35.2974386 59.0694774,33.4260656 57.7073469,32.0515903 C56.3452165,30.6771149 54.1713439,29.6586087 51.1856641,28.9960411 L47.5946109,28.2136513 C45.8609903,27.8189302 44.6089498,27.3255362 43.8384518,26.7334545 C43.0679537,26.1413728 42.6827105,25.3660394 42.6827105,24.4074309 C42.6827105,23.2091704 43.1573852,22.2541006 44.1067488,21.5421928 C45.0561125,20.8302851 46.308153,20.4743365 47.8629079,20.4743365 C49.3763862,20.4743365 50.6318664,20.8479063 51.6293862,21.595057 C52.6269059,22.3422077 53.1944518,23.3360442 53.3320407,24.5765963 L59.2139382,24.5765963 C59.1313848,21.8840343 58.0306899,19.688431 55.9118203,17.9897204 C53.7929507,16.2910099 51.0962481,15.4416673 47.8216315,15.4416673 C44.3819081,15.4416673 41.6232914,16.3051068 39.5456985,18.0320118 C37.4681056,19.7589167 36.4293247,22.0531988 36.4293247,24.914927 C36.4293247,27.226865 37.0966211,29.098238 38.4312337,30.5291021 C39.7658464,31.9599662 41.7952527,32.9784724 44.5195136,33.5846512 L48.3995021,34.4516237 C50.215676,34.860442 51.5227513,35.3785057 52.3207671,36.0058303 C53.1187829,36.633155 53.5177848,37.4402066 53.5177848,38.4270094 C53.5177848,39.6111728 53.0052737,40.5803396 51.9802362,41.3345389 C50.9551986,42.0887382 49.630925,42.4658322 48.0073756,42.4658322 C46.2462372,42.4658322 44.8050148,42.0887382 43.683665,41.3345389 C42.5623152,40.5803396 41.9259759,39.5688819 41.7746281,38.3001354 L35.7482629,38.3001354 Z"/>
  </g>
</svg>
